<svg width="250" height="207" viewBox="0 0 250 207" fill="none" xmlns="http://www.w3.org/2000/svg">
<g clip-path="url(#clip0_301_7)">
<path d="M12.8594 80.5196C16.8821 75.5078 18.201 68.9132 20.4431 63.044C21.6961 59.8127 24.6636 57.4387 25.0593 54.0095C25.1912 52.6906 25.1253 51.1738 24.268 50.1846C23.6745 49.3933 23.4107 48.4041 23.4766 47.4149C23.5426 46.4917 23.8064 45.5684 24.3339 44.7112" stroke="#494949"/>
<path d="M12.8594 80.5196C18.7945 79.4645 25.389 81.8386 30.8625 83.8169C37.589 86.2569 44.1836 89.2904 50.7781 92.192C47.8765 88.0375 45.0409 82.6959 49.0635 78.2115" stroke="#494949"/>
<path d="M11.8043 81.8386C-11.2767 116.064 6.39672 162.688 14.0464 200.013" stroke="#494949"/>
<path d="M13.9502 199.369C14 210 84.9036 204.723 87.4037 204.223C83.0513 191.76 83.3908 180.162 79.5 167.5" stroke="#494949"/>
<path d="M18.7944 138.684C26.3122 146.399 34.0938 153.785 42.2051 160.907C55.1305 151.345 94.0384 137.76 66.8688 124.769" stroke="#494949"/>
<path d="M79.2666 133.87C91.7963 140.003 100.765 154.84 116.328 150.422" stroke="#494949"/>
<path d="M54.9985 153.917C104.985 183.922 120.351 181.219 170.206 153.653" stroke="#494949"/>
<path d="M116.196 150.422C147.389 149.895 179.966 126.945 207.861 150.884" stroke="#494949"/>
<path d="M170.271 153.785C175.02 157.874 183.856 156.687 190.055 157.478C195.529 159.193 200.541 164.337 206.542 163.084C205.882 158.731 193.88 155.302 189.33 152.005" stroke="#494949"/>
<path d="M193.353 153.39C198.628 150.686 207.531 161.501 214.323 159.457C214.983 155.632 205.882 154.181 203.442 150.818" stroke="#494949"/>
<path d="M214.851 157.544C218.544 155.83 208.85 153.258 207.861 150.884" stroke="#494949"/>
<path d="M195.463 147.982C197.375 148.444 202.981 150.356 203.508 150.884" stroke="#494949"/>
<path d="M195.529 147.982C193.748 147.323 191.506 147.52 189.923 146.202" stroke="#494949"/>
<path d="M188.934 139.739C191.704 141.058 194.276 142.64 196.782 144.355" stroke="#494949"/>
<path d="M201.134 145.674C171.459 121.01 116.79 148.51 80.9155 118.043" stroke="#494949"/>
<path d="M184.978 136.573C187.681 136.639 190.715 135.848 192.825 138.09C193.485 138.816 194.078 139.673 194.474 140.596" stroke="#494949"/>
<path d="M72.0785 128.33C71.2872 123.78 70.6936 118.966 68.8472 114.68" stroke="#494949"/>
<path d="M72.0127 125.297C86.7186 117.054 76.0354 116.13 68.5176 108.085" stroke="#494949"/>
<path d="M65.0225 105.117C66.5392 107.491 68.056 112.899 68.9792 114.877" stroke="#494949"/>
<path d="M68.5173 108.085C63.7033 99.7757 57.1087 91.7304 48.1401 87.5758" stroke="#494949"/>
<path d="M186.296 158.138L197.771 173.107" stroke="#494949"/>
<path d="M243.999 172.514L197.837 173.173" stroke="#494949"/>
<path d="M249.604 169.876L243.999 172.382" stroke="#494949"/>
<path d="M249.472 169.942C249.538 169.942 249.604 169.876 249.604 169.81C249.604 169.744 249.604 169.678 249.604 169.612V169.546V169.414L249.472 163.347L248.879 163.084" stroke="#494949"/>
<path d="M197.178 171.986C195.595 160.512 244.065 164.864 249.407 163.347" stroke="#494949"/>
<path d="M189.726 158.072C192.232 161.039 196.98 172.975 198.76 165.392C205.553 162.16 229.755 168.491 216.5 157.148" stroke="#494949"/>
<path d="M194.078 160.05C195.463 161.897 196.716 163.677 198.035 165.524" stroke="#494949"/>
<path d="M197.244 163.545C198.76 163.545 200.211 163.479 201.728 163.281" stroke="#494949"/>
<path d="M207.795 162.556C211.752 162.226 215.708 162.16 219.665 161.699" stroke="#494949"/>
<path d="M207.069 160.644C210.762 160.776 214.521 160.38 218.214 160.578" stroke="#494949"/>
<path d="M205.619 159.061L207.663 158.995" stroke="#494949"/>
<path d="M203.838 157.874H205.157" stroke="#494949"/>
<path d="M215.642 158.336H216.961" stroke="#494949"/>
<path d="M200.277 157.346C201.2 157.346 202.123 157.346 203.047 157.214" stroke="#494949"/>
<path d="M199.288 156.621C200.079 156.621 200.87 156.555 201.728 156.489" stroke="#494949"/>
<path d="M198.497 156.027H200.475" stroke="#494949"/>
<path d="M196.518 162.028C196.98 162.028 197.441 162.028 197.969 161.963" stroke="#494949"/>
<path d="M214.785 154.972C210.301 151.807 207.531 144.355 201.398 145.146" stroke="#494949"/>
<path d="M203.772 146.795H205.75" stroke="#494949"/>
<path d="M205.091 147.454H207.069" stroke="#494949"/>
<path d="M207.729 149.433H209.048" stroke="#494949"/>
<path d="M208.982 151.016L210.169 150.95" stroke="#494949"/>
<path d="M205.157 144.949C205.355 144.883 221.775 144.223 221.907 144.025C220.522 141.981 224.809 141.519 225.534 142.97C224.809 144.289 226.325 143.366 226.721 144.223" stroke="#494949"/>
<path d="M222.039 144.223C222.699 146.861 224.479 145.212 225.336 143.762" stroke="#494949"/>
<path d="M226.787 144.223L248.945 162.754" stroke="#494949"/>
<path d="M212.279 146.663L218.94 146.465" stroke="#494949"/>
<path d="M220.39 147.718L218.939 146.465" stroke="#494949"/>
<path d="M213.598 148.048L220.391 147.718" stroke="#494949"/>
<path d="M212.279 146.663L213.598 148.048" stroke="#494949"/>
<path d="M222.039 149.697C220.522 149.565 215.378 150.752 214.521 148.773C215.642 148.246 222.171 147.455 222.039 149.697Z" stroke="#494949"/>
<path d="M216.434 150.686L218.016 152.071" stroke="#494949"/>
<path d="M224.611 151.741L218.017 152.071" stroke="#494949"/>
<path d="M216.434 150.686L223.226 150.29" stroke="#494949"/>
<path d="M224.611 151.741L223.226 150.29" stroke="#494949"/>
<path d="M218.544 152.73L219.797 154.049" stroke="#494949"/>
<path d="M226.589 153.719L219.797 154.049" stroke="#494949"/>
<path d="M225.336 152.137L218.544 152.73" stroke="#494949"/>
<path d="M226.589 153.719L225.336 152.137" stroke="#494949"/>
<path d="M221.907 146.202L227.842 145.938" stroke="#494949"/>
<path d="M229.359 147.125L227.908 146.004" stroke="#494949"/>
<path d="M223.226 147.389L229.359 147.125" stroke="#494949"/>
<path d="M221.907 146.202L223.226 147.389" stroke="#494949"/>
<path d="M223.886 148.114L230.217 147.85" stroke="#494949"/>
<path d="M231.667 149.037L230.216 147.85" stroke="#494949"/>
<path d="M225.336 149.367L231.667 149.037" stroke="#494949"/>
<path d="M223.886 148.114L225.337 149.433" stroke="#494949"/>
<path d="M225.93 149.96L232.656 149.697" stroke="#494949"/>
<path d="M233.975 151.082L232.656 149.697" stroke="#494949"/>
<path d="M227.315 151.411L233.975 151.082" stroke="#494949"/>
<path d="M225.93 149.96L227.315 151.411" stroke="#494949"/>
<path d="M228.106 152.071L234.832 151.741" stroke="#494949"/>
<path d="M229.623 153.39L228.106 152.071" stroke="#494949"/>
<path d="M236.086 152.928L229.623 153.39" stroke="#494949"/>
<path d="M234.833 151.741L236.086 152.928" stroke="#494949"/>
<path d="M233.447 162.028C238.393 162.82 233.975 155.961 232.524 160.248C232.326 161.171 232.129 162.094 233.447 162.028Z" stroke="#494949"/>
<path d="M233.382 161.303C233.118 160.248 233.777 159.654 234.635 159.259" stroke="#494949"/>
<path d="M241.823 161.171C243.537 162.754 246.043 160.248 243.801 158.929C242.548 158.204 241.031 160.182 241.823 161.171Z" stroke="#494949"/>
<path d="M243.339 159.193C243.867 159.72 243.669 160.314 243.603 160.907" stroke="#494949"/>
<path d="M240.306 159.061C241.691 159.391 242.746 157.61 241.427 156.753C239.844 155.764 238.196 158.797 240.306 159.061Z" stroke="#494949"/>
<path d="M240.899 157.017C240.438 157.083 240.174 157.874 240.306 158.336" stroke="#494949"/>
<path d="M230.48 157.478C231.271 155.83 233.579 157.478 232.92 158.929C231.667 159.918 229.952 159.193 230.48 157.478Z" stroke="#494949"/>
<path d="M231.469 157.148C231.667 157.28 231.865 157.412 231.997 157.544" stroke="#494949"/>
<path d="M236.877 155.962C236.283 157.149 238.394 156.687 239.053 156.555C240.834 154.906 236.481 152.928 236.877 155.962Z" stroke="#494949"/>
<path d="M231.799 156.621C231.997 152.928 226.721 157.017 230.15 157.214" stroke="#494949"/>
<path d="M238.196 154.84C237.932 155.104 237.8 155.5 237.866 155.896" stroke="#494949"/>
<path d="M230.48 155.632C230.15 155.698 229.953 155.961 229.953 156.291V156.357" stroke="#494949"/>
<path d="M35.6105 55.7241C35.017 55.6581 34.4234 55.3284 33.764 55.3944C33.4343 55.4603 33.1705 55.5922 32.8407 55.6581C32.0494 55.7241 31.324 55.3944 30.7305 54.8668L29.3456 53.8776C28.7521 53.4819 28.1586 52.9544 27.631 52.4268C25.5208 49.9209 24.4657 46.6236 24.2019 43.3263C24.07 42.2052 24.1359 41.0182 24.5316 39.9631C25.4548 38.0506 27.4332 36.9296 29.5435 37.1274C30.5327 37.1933 31.4559 37.589 32.2472 38.1166C32.9067 38.5782 33.5002 39.2377 34.2256 39.6333" stroke="#494949"/>
<path d="M35.6108 51.3057C34.4898 51.1738 33.8303 49.8549 32.7092 49.4592C31.9179 49.1955 30.9287 49.5252 30.2033 49.1955C29.4779 48.7998 29.0822 48.0084 29.2141 47.2171C29.346 46.4257 29.8076 45.7003 30.4011 45.2387C31.0606 44.7771 31.72 44.4474 32.4454 44.1176" stroke="#494949"/>
<path d="M26.3783 47.283C25.9167 46.8873 25.6529 46.2938 25.5869 45.7003C25.2572 44.1176 25.3232 42.469 25.7848 40.8863C25.8507 40.4906 26.0486 40.1609 26.2464 39.7652C26.9718 38.9739 28.0269 38.5782 29.0821 38.776C29.6096 38.776 30.0712 38.9739 30.4669 39.2377C30.7307 39.5014 30.9945 39.7652 31.1923 40.0949C31.9837 41.1501 32.6431 42.3371 32.9729 43.5901C33.3026 44.909 32.9729 46.2938 31.9837 47.2171" stroke="#494949"/>
<path d="M32.3135 48.3382C32.5113 48.2722 32.6432 48.2063 32.841 48.0744C33.1708 47.8106 33.5664 47.6128 34.0281 47.4809C34.16 47.4149 34.2918 47.4149 34.3578 47.4149C34.6875 47.4809 34.8194 47.8765 34.8194 48.2063C34.7535 48.536 34.7535 48.8657 34.8194 49.1954C34.9513 49.5252 35.2151 49.723 35.4789 49.9208C35.7426 50.1187 36.0064 50.3825 36.0724 50.6463C36.1383 50.976 35.9405 51.3717 35.6108 51.3717" stroke="#494949"/>
<path d="M34.4238 57.043C36.1384 60.5381 36.0065 64.7586 38.1827 67.99C39.6335 70.1662 41.9416 71.617 44.1838 73.0018C48.5362 75.6397 52.8886 78.3434 57.7026 79.8602C58.7578 80.2559 59.8129 80.3877 60.934 80.3877C63.2421 80.1899 65.1545 78.6072 65.6821 76.3651C66.0118 74.9802 65.8799 73.1997 67.0669 72.4083C67.9902 71.8148 69.3091 72.0126 70.0345 71.2213C70.7599 70.43 70.4302 69.2429 69.9685 68.2537C71.2215 68.2537 72.2766 67.2646 72.4745 66.0775C72.6064 65.0224 71.9469 63.8354 72.4745 62.8462C73.1339 61.4613 75.3101 61.7911 76.629 60.8678C77.6182 60.0765 78.0799 58.7576 77.7501 57.5046C77.4204 56.3176 76.7609 55.1965 75.9696 54.2073C75.6399 53.7457 75.3761 53.2841 75.1123 52.7565L73.1999 48.2722C73.068 48.0084 72.9361 47.6787 72.9361 47.349C72.8701 46.4917 73.5956 45.8322 74.1891 45.3047" stroke="#494949"/>
<path d="M68.9131 61.3295C69.3088 61.5933 69.7704 61.6592 70.1661 61.5273C70.6277 61.4614 71.0233 61.2635 71.419 61.0657C71.5509 60.9997 71.7487 60.9338 71.8806 60.8679C72.0785 60.8019 72.2104 60.8019 72.4082 60.736C72.9358 60.6041 73.5293 60.6041 73.9909 60.8019" stroke="#494949" stroke-width="0.48"/>
<path d="M75.1122 43.9198C73.3976 44.1836 71.7489 43.4582 70.2322 42.6009C68.7154 41.7436 67.3965 40.6885 65.7479 40.095C65.0225 39.8971 64.2311 39.9631 63.6376 40.3588C62.9122 40.6885 62.2527 41.216 61.5273 41.5458" stroke="#494949"/>
<path d="M74.7822 35.2809C75.4417 36.336 75.8374 37.4571 75.9692 38.7101C76.1011 39.3695 76.1671 40.029 76.233 40.6885C76.233 41.3479 76.0352 42.0074 75.7055 42.6009C75.5736 42.8647 75.4417 43.0625 75.2438 43.2603" stroke="#494949"/>
<path d="M19.9817 62.5824C19.6519 60.2084 19.7838 57.7684 19.6519 55.3284C19.4541 51.1079 18.5968 46.9533 17.146 42.9966" stroke="#494949"/>
<path d="M16.4865 42.7328C15.1016 41.6777 14.4422 39.9631 13.7827 38.3144L12.7276 35.5447C12.5957 35.1491 12.4638 34.8193 12.3319 34.4236C11.4087 31.522 11.2768 28.4226 12.1341 25.455C12.4638 24.4659 12.7935 23.4767 13.1892 22.4875L14.3103 19.5859" stroke="#494949"/>
<path d="M15.9591 16.1567C15.6293 16.8821 15.3656 17.6734 15.2996 18.4648C15.2996 19.1242 15.3655 19.8496 15.4974 20.5091C15.8931 23.4766 15.2996 26.642 13.4531 29.0161" stroke="#494949"/>
<path d="M18.1351 12.134C17.2778 12.5297 16.6843 13.4529 16.6843 14.3762C16.6183 15.4972 17.2778 16.4864 17.7394 17.5415C18.9924 19.9815 19.5859 22.7513 19.5199 25.521" stroke="#494949"/>
<path d="M18.2671 16.0248C18.4649 16.6842 18.6628 17.4096 18.9265 18.0691C19.1244 18.7286 19.4541 19.388 19.7838 19.9815C20.7071 21.1685 21.8282 22.1577 23.0811 22.8172" stroke="#494949"/>
<path d="M21.7621 9.56213C20.9048 10.2875 20.2453 11.3427 19.9816 12.3978C19.7178 13.5189 19.6518 14.6399 19.7837 15.761C19.8497 16.2886 19.9816 16.8162 20.1794 17.2778C20.707 18.0032 21.4324 18.5967 22.2897 18.9924" stroke="#494949"/>
<path d="M24.2023 10.0237C24.1363 11.4745 23.345 12.8594 23.0153 14.2443C22.9493 14.7718 22.8834 15.2994 22.8834 15.827C22.8174 16.4205 22.9493 16.948 23.1471 17.5415C23.6088 18.5967 24.7958 19.1242 25.8509 19.5199" stroke="#494949"/>
<path d="M26.4442 9.49619C26.1145 10.7492 25.9826 12.0021 25.9166 13.321C25.8507 13.8486 25.8507 14.4421 25.9166 14.9697C26.0485 15.6291 26.2464 16.2226 26.5102 16.8821C26.8399 17.7394 27.3675 18.5307 27.961 19.2561" stroke="#494949"/>
<path d="M24.1362 23.7404L27.3016 25.7188C27.7632 25.9826 28.1589 26.3123 28.5546 26.708C29.5438 27.8291 29.4778 29.4777 29.0162 30.8626" stroke="#494949"/>
<path d="M26.9717 20.9707C28.4225 21.5642 29.7414 22.4215 30.8625 23.5426C31.9835 24.6637 32.4452 26.2464 32.1814 27.8291" stroke="#494949"/>
<path d="M23.3447 20.3772C24.5977 20.9707 25.7847 21.6302 26.9058 22.3556C28.0269 23.1469 28.9501 24.1361 29.6096 25.3231" stroke="#494949"/>
<path d="M29.1481 7.31998C28.6865 8.507 28.3568 9.75997 28.2249 11.0789C27.9611 13.5848 28.4227 16.0907 29.6757 18.267C30.3351 19.388 31.1924 20.4432 31.8519 21.5642" stroke="#494949"/>
<path d="M30.9944 10.947C30.4669 12.2 30.269 13.5189 30.4669 14.8378C30.6647 15.6951 30.9944 16.5524 31.522 17.2778C31.7198 17.6075 31.9177 17.8713 32.1814 18.1351C32.5771 18.3988 32.9728 18.5967 33.4344 18.6626C34.8193 18.9924 36.336 18.9924 37.7209 19.388C39.1057 19.7837 40.4906 20.7069 40.9522 22.0259" stroke="#494949"/>
<path d="M22.6191 8.90267C23.1467 8.507 23.7402 8.30916 24.3997 8.37511C24.9932 8.37511 25.6526 8.30916 26.2461 8.17727C27.0375 7.91349 27.697 7.38592 28.0926 6.59457" stroke="#494949"/>
<path d="M17.2119 24.5977C17.4098 26.0485 17.7395 27.4993 18.267 28.9501C18.7287 30.7966 18.8606 32.6431 18.6627 34.5555" stroke="#494949"/>
<path d="M14.3101 32.0496C14.376 33.1047 14.7717 34.1599 15.3652 35.0831C15.8928 36.0063 16.5522 36.8636 17.1457 37.7869" stroke="#494949"/>
<path d="M15.7612 30.7966C16.2228 31.6539 16.6185 32.5112 16.9483 33.4345C17.0801 34.028 17.278 34.5555 17.5418 35.0831" stroke="#494949"/>
<path d="M20.311 27.3674C20.6408 29.2139 21.6299 30.9944 21.4321 32.9069" stroke="#494949"/>
<path d="M31.2583 37.0614C31.9178 36.8636 32.6432 36.9296 33.3026 37.2593C33.9621 37.589 34.5556 37.9187 35.0831 38.3804C36.5999 39.5674 38.0507 40.7544 39.5015 42.0074C40.3588 42.6668 41.0183 43.4582 41.4799 44.4474C41.7437 45.1068 41.8756 45.8982 42.535 46.2279C42.9307 46.3598 43.3264 46.2938 43.6561 46.096C43.9858 45.8982 44.3155 45.6344 44.5134 45.3047L46.0301 43.656C46.2939 43.3922 46.5577 43.0625 46.8215 42.7328C47.0853 42.2712 47.349 41.8095 47.5469 41.3479C48.0744 40.3587 48.7339 39.3695 49.4593 38.5123" stroke="#494949"/>
<path d="M33.1047 21.3664C33.5004 22.7513 33.8301 24.2021 33.962 25.6529C34.1598 27.961 33.6982 30.335 32.6431 32.3793" stroke="#494949"/>
<path d="M35.3467 29.4118C35.9402 28.5545 36.7315 27.8291 37.5888 27.3015C38.4461 26.708 39.4353 26.1145 40.4245 25.6529" stroke="#494949"/>
<path d="M38.1827 21.9599C37.0616 23.4766 35.8746 25.1912 35.6768 27.1037" stroke="#494949"/>
<path d="M34.6216 21.1685C34.6875 21.3664 34.8194 21.4983 34.8854 21.6302C35.347 22.2237 35.6108 22.9491 35.7427 23.6745" stroke="#494949"/>
<path d="M35.0833 8.63889C34.6217 9.62807 34.6876 10.8151 35.3471 11.6724C36.0065 12.5297 36.8638 13.2551 37.787 13.7167C38.1168 13.9145 38.5124 14.1124 38.9081 14.2443" stroke="#494949"/>
<path d="M33.5005 6.85836C34.9513 6.79241 36.4021 6.9243 37.787 7.31998C39.1718 7.71565 40.4248 8.507 41.348 9.62807C41.6118 9.9578 41.8096 10.3535 42.0075 10.6832C42.7329 12.0021 43.1945 13.4529 43.2604 14.9697" stroke="#494949"/>
<path d="M41.6118 7.51779C42.7329 7.78157 43.7221 8.24319 44.5794 8.9686C44.975 9.29832 45.3707 9.694 45.7005 10.1556C46.4918 11.3426 46.8215 12.7275 46.6237 14.1124C46.4918 15.0356 46.1621 15.8269 45.9642 16.7502C45.8323 17.5415 45.7664 18.3988 45.7664 19.2561C45.7004 21.828 46.1621 24.3339 47.1513 26.708" stroke="#494949"/>
<path d="M47.2832 10.0897C47.6789 10.6832 48.1405 11.2767 48.6021 11.8043C49.7232 13.321 49.987 15.2994 49.3275 17.0799C48.9978 17.8053 48.6021 18.4648 48.2724 19.2561C47.8767 19.9815 47.7448 20.7729 47.8108 21.5642" stroke="#494949"/>
<path d="M48.6021 9.56213C49.3934 9.82592 50.1847 10.2216 50.9102 10.6832C51.4377 11.0789 51.8993 11.5405 52.295 12.0021C52.7566 12.5297 53.2183 13.1232 53.6799 13.7167C53.9437 14.0464 54.1415 14.3762 54.3393 14.7059C54.5372 15.1675 54.6691 15.6291 54.735 16.0908C55.1307 19.2561 54.1415 22.3556 53.0864 25.3231" stroke="#494949"/>
<path d="M51.3716 14.3102C51.8992 15.1016 52.097 16.0248 52.097 17.014C52.163 18.9264 51.8992 20.8388 51.3057 22.6853" stroke="#494949"/>
<path d="M56.2514 17.5415C56.1195 18.7945 56.0536 19.9815 55.9217 21.2345C55.8557 22.0258 55.7239 22.8831 55.526 23.6745C55.1963 24.5977 54.8006 25.521 54.2731 26.3783C53.6795 27.4334 53.152 28.5545 52.7563 29.6755C51.8331 32.3134 51.7012 35.149 51.7012 37.9847" stroke="#494949"/>
<path d="M55.7242 28.3566C55.5923 30.0712 55.1307 31.7199 54.4053 33.3026C54.1415 34.0939 53.7458 34.8852 53.2183 35.6106" stroke="#494949"/>
<path d="M51.3716 26.6421L50.91 29.6756C50.6462 31.4561 50.3824 33.3026 50.1846 35.0831C50.1187 35.5447 50.1187 36.0063 50.1187 36.468C50.1187 37.3912 50.3165 38.3144 50.6462 39.1717" stroke="#494949"/>
<path d="M58.5599 18.0691C59.2853 18.7286 59.8788 19.5199 60.2745 20.4432C60.6702 21.0367 60.934 21.7621 61.1318 22.4215C61.3296 23.1469 61.3956 23.9383 61.3956 24.6637C61.4615 25.7848 61.4615 26.8399 61.4615 27.961C61.4615 28.5545 61.4615 29.2139 61.3296 29.8074C61.1318 30.8626 60.6042 31.7858 59.9448 32.5772C59.2853 33.3685 58.494 34.0939 57.7026 34.8193" stroke="#494949"/>
<path d="M31.7197 6.99023C31.39 7.05618 31.1921 6.72645 31.0602 6.46267C30.8624 6.06699 30.7305 5.53943 30.7965 5.07781C30.9283 4.41835 31.2581 3.89079 31.8516 3.49511C32.3791 3.23133 32.9727 2.96755 33.6321 2.83565C34.1597 2.70376 34.6872 2.63782 35.2808 2.63782C35.8743 2.70376 36.4018 2.9016 36.7975 3.29727" stroke="#494949"/>
<path d="M34.5557 5.53944C35.6108 5.73728 36.7319 5.34161 37.3913 4.48431C37.6551 4.15459 37.853 3.75891 38.0508 3.42918C38.5124 2.76973 39.04 2.17622 39.6335 1.64865" stroke="#494949"/>
<path d="M40.0947 3.16541C40.3585 3.89081 40.4245 4.68216 40.2266 5.40756" stroke="#494949"/>
<path d="M50.9758 0.593506C50.712 1.31891 50.5801 2.1762 50.5801 2.96755C50.712 3.56106 50.8439 4.08863 51.1736 4.68214L51.3055 4.41835" stroke="#494949"/>
<path d="M52.8882 0.0659485C53.086 0.923242 53.152 1.78054 53.152 2.63783" stroke="#494949"/>
<path d="M56.0537 2.17621L57.9661 2.63783C58.164 2.63783 58.2959 2.70377 58.4937 2.83567C58.6915 2.96756 58.8234 3.09945 58.9553 3.29728C60.4061 5.3416 60.8677 7.97943 60.2083 10.3535C60.0764 10.881 59.8126 11.4086 59.6807 12.0021C59.4169 13.0572 59.351 14.1783 59.6148 15.2334C59.6807 15.4313 59.9445 15.6951 60.0104 15.4972" stroke="#494949"/>
<path d="M64.0991 6.33078C65.0224 7.25402 65.2861 8.57293 65.6159 9.75995C65.8137 10.4194 65.8137 11.0789 65.7478 11.7383C65.6159 12.134 65.418 12.4637 65.2202 12.8594C63.9672 15.2994 63.9013 18.2669 65.0883 20.7729L65.2861 20.0475" stroke="#494949"/>
<path d="M67.7922 8.50699C67.3966 7.58375 67.1987 6.59457 67.1987 5.60538C67.1987 5.40755 67.1987 5.20971 67.2647 5.01187C67.4625 4.6162 67.6604 4.22052 67.9241 3.82485C68.122 3.29728 68.1879 2.76972 68.122 2.17621" stroke="#494949"/>
<path d="M70.5619 8.63889C69.8365 10.2216 70.496 12.2 69.9024 13.8486C69.5068 14.8378 68.6495 15.6951 68.5176 16.7502" stroke="#494949"/>
<path d="M72.672 10.2875C72.4742 11.9362 72.5401 13.5848 72.9358 15.2335C73.1336 16.0908 73.4633 16.948 73.5952 17.8053C73.7931 18.6626 73.6612 19.5859 73.2655 20.3772" stroke="#494949"/>
<path d="M74.5186 10.2875C74.4526 9.89185 74.4526 9.49618 74.4526 9.03456C74.4526 8.77078 74.5186 8.50699 74.6505 8.24321C74.7824 7.71565 74.9802 7.25403 75.3759 6.9243C75.7716 6.59457 76.3651 6.66052 76.6948 6.99025C76.8267 7.25403 76.8926 7.51781 76.8267 7.84754C76.8267 8.24321 76.7607 8.63889 76.6948 9.03456" stroke="#494949"/>
<path d="M76.1011 12.4637C76.8924 12.134 77.7497 12.7935 78.2113 13.5189C78.8708 14.6399 79.0686 15.9589 78.8708 17.2118C78.673 18.4648 78.2773 19.7178 77.6838 20.8388C77.42 21.5642 76.9584 22.2896 76.3649 22.8172" stroke="#494949"/>
<path d="M80.0581 19.0583C81.5089 20.8388 82.8938 22.7512 83.5532 24.9275C84.2127 27.1037 84.0148 29.7415 82.4321 31.3901" stroke="#494949"/>
<path d="M71.6172 22.2237C72.8702 23.6745 74.1231 25.2572 74.4529 27.1037C74.5847 27.8291 74.6507 28.5545 74.6507 29.2799C74.6507 31.1923 75.1783 33.0388 76.2334 34.6215C77.2885 36.1382 79.2009 37.2593 81.0474 36.9955C81.7728 36.9296 82.4323 36.5339 82.8939 36.0063" stroke="#494949"/>
<path d="M77.4863 26.7739C77.4203 29.2139 78.7392 31.4561 79.9922 33.5663C80.1241 33.8961 80.4538 34.1598 80.7835 34.3577" stroke="#494949"/>
<path d="M79.0027 22.8831C78.8049 24.334 79.2665 25.8507 80.1897 26.9718C80.3216 27.1696 80.4535 27.3015 80.6514 27.4334C81.113 27.6972 81.6406 27.7631 82.1022 27.4993" stroke="#494949"/>
<path d="M68.5835 19.6518C69.0451 20.575 69.3748 21.5642 69.5727 22.5534C69.7705 24.0042 69.7705 25.455 69.6386 26.9058C69.5727 28.4885 69.7705 30.0053 70.1662 31.522C70.6278 33.0388 71.4851 34.3577 72.6721 35.3469V34.9512" stroke="#494949"/>
<path d="M62.5163 13.2551C61.9228 14.9037 61.7909 16.6842 62.1866 18.3988C62.5823 20.1134 63.3077 21.6961 64.2969 23.1469C64.6266 23.6085 64.9563 24.1361 65.2861 24.6637C66.0115 26.1145 65.8796 27.8291 65.7477 29.4117" stroke="#494949"/>
<path d="M66.7369 21.9599C67.7261 24.268 68.3196 26.708 68.4515 29.2139C68.5834 31.588 68.2536 34.2258 66.5391 35.9404" stroke="#494949"/>
<path d="M46.7554 6.00107C47.9424 6.92431 49.4591 7.25404 50.9099 7.64971C52.3607 8.04538 53.8775 8.57295 54.8007 9.69402C55.1305 10.0897 55.4602 10.5513 55.658 11.0129C56.1856 11.8702 56.6472 12.7935 56.911 13.7827" stroke="#494949"/>
<path d="M81.443 16.7502C82.3663 16.2886 82.9598 15.2994 82.8279 14.2443C82.696 13.1891 82.1685 12.2659 81.3771 11.6724C80.5858 11.0789 79.6625 10.5513 78.6733 10.2875" stroke="#494949"/>
<path d="M86.5209 13.5189C86.7847 15.1016 87.0485 16.8161 86.3231 18.201C85.9934 18.7286 85.5977 19.2561 85.202 19.6518C84.6085 20.2453 83.9491 20.9048 83.1577 20.7729" stroke="#494949"/>
<path d="M90.3457 20.3112C90.7414 21.3664 90.8073 22.4875 90.6095 23.6085C90.4776 24.0702 90.2797 24.4658 90.016 24.8615C89.8181 25.3231 89.4884 25.7847 89.1587 26.1145C88.763 26.4442 88.2354 26.708 87.7738 26.9058C87.2462 27.1696 86.7187 27.3015 86.1252 27.3015C85.9273 27.3015 85.7295 27.1696 85.7295 26.9718" stroke="#494949"/>
<path d="M85.2676 25.1912C85.8611 25.0594 86.3227 24.7956 86.7843 24.4658C87.7076 23.8064 88.367 22.8831 88.7627 21.828C89.1584 20.7729 89.0265 19.5859 88.4989 18.5967" stroke="#494949"/>
<path d="M44.843 15.6951C44.3814 17.3437 43.3922 18.8605 42.0073 19.9815" stroke="#494949"/>
<path d="M40.7545 15.4313C40.8864 16.0248 40.7545 16.6183 40.4248 17.0799C40.0951 17.5415 39.6994 18.0032 39.3037 18.3329" stroke="#494949"/>
<path d="M44.3815 20.3772C43.9199 22.2896 42.9966 24.1361 42.9307 26.1145" stroke="#494949"/>
<path d="M32.3135 9.16644C32.9729 10.4854 33.2367 12.0021 33.0389 13.5189C32.907 14.2443 32.841 14.9037 32.907 15.6291C32.9729 16.3545 33.4346 17.014 34.094 17.2778" stroke="#494949"/>
<path d="M67.8579 45.7003C67.1985 46.096 66.539 46.3598 65.8136 46.5576C64.9563 46.7555 64.0331 46.6895 63.1758 46.8874C63.5055 46.8874 63.8352 46.9533 64.165 47.2171C65.0882 47.7447 66.0114 48.2722 66.8687 48.9317" stroke="#494949" stroke-width="0.75"/>
<path d="M175.223 188H176.123V184.376C176.123 183.272 175.475 182.516 174.455 182.516C173.699 182.516 173.051 182.78 172.595 183.26C172.307 182.792 171.827 182.516 171.215 182.516C170.591 182.516 170.051 182.708 169.631 183.056V182.6H168.731V188H169.631V183.86C169.955 183.524 170.435 183.32 170.999 183.32C171.587 183.32 171.983 183.752 171.983 184.376V188H172.883V184.376C172.883 184.196 172.859 184.016 172.823 183.848C173.171 183.512 173.675 183.32 174.251 183.32C174.827 183.32 175.223 183.752 175.223 184.376V188ZM182.434 182.6H181.546V185.78C181.546 186.668 180.97 187.28 180.142 187.28C179.302 187.28 178.738 186.668 178.738 185.78V182.6H177.802V185.78C177.802 187.16 178.738 188.096 180.118 188.096C181.498 188.096 182.434 187.16 182.434 185.78V182.6ZM187.084 183.164C186.676 182.744 186.052 182.516 185.428 182.516C184.312 182.516 183.796 183.272 183.796 184.052C183.796 184.976 184.504 185.312 185.26 185.612C185.944 185.9 186.328 186.068 186.328 186.5C186.328 186.86 186.076 187.34 185.368 187.34C184.948 187.34 184.456 187.16 184.18 186.836L183.652 187.364C184.072 187.82 184.732 188.096 185.428 188.096C186.64 188.096 187.228 187.268 187.228 186.464C187.228 185.588 186.52 185.252 185.812 184.952C185.176 184.688 184.696 184.508 184.696 184.028C184.696 183.692 184.924 183.272 185.5 183.272C185.86 183.272 186.328 183.44 186.556 183.692L187.084 183.164ZM188.63 188H189.53V182.6H188.63V188ZM188.486 180.98C188.486 181.316 188.75 181.58 189.086 181.58C189.422 181.58 189.686 181.316 189.686 180.98C189.686 180.644 189.422 180.38 189.086 180.38C188.75 180.38 188.486 180.644 188.486 180.98ZM191.866 185.3C191.866 184.124 192.634 183.32 193.75 183.32C194.338 183.32 194.818 183.536 195.142 183.884L195.706 183.332C195.214 182.816 194.53 182.516 193.702 182.516C192.058 182.516 190.942 183.644 190.942 185.3C190.942 186.968 192.058 188.096 193.702 188.096C194.53 188.096 195.214 187.796 195.706 187.292L195.142 186.728C194.818 187.076 194.338 187.28 193.75 187.28C192.634 187.28 191.866 186.476 191.866 185.3ZM200.351 185.3C200.351 184.124 201.119 183.32 202.235 183.32C202.823 183.32 203.303 183.536 203.627 183.884L204.191 183.332C203.699 182.816 203.015 182.516 202.187 182.516C200.543 182.516 199.427 183.644 199.427 185.3C199.427 186.968 200.543 188.096 202.187 188.096C203.015 188.096 203.699 187.796 204.191 187.292L203.627 186.728C203.303 187.076 202.823 187.28 202.235 187.28C201.119 187.28 200.351 186.476 200.351 185.3ZM205.075 185.3C205.075 186.968 206.191 188.096 207.835 188.096C209.479 188.096 210.607 186.968 210.607 185.3C210.607 183.644 209.479 182.516 207.835 182.516C206.191 182.516 205.075 183.644 205.075 185.3ZM205.999 185.3C205.999 184.124 206.743 183.32 207.835 183.32C208.915 183.32 209.671 184.124 209.671 185.3C209.671 186.476 208.915 187.28 207.835 187.28C206.743 187.28 205.999 186.476 205.999 185.3ZM218.489 188H219.389V184.376C219.389 183.272 218.741 182.516 217.721 182.516C216.965 182.516 216.317 182.78 215.861 183.26C215.573 182.792 215.093 182.516 214.481 182.516C213.857 182.516 213.317 182.708 212.897 183.056V182.6H211.997V188H212.897V183.86C213.221 183.524 213.701 183.32 214.265 183.32C214.853 183.32 215.249 183.752 215.249 184.376V188H216.149V184.376C216.149 184.196 216.125 184.016 216.089 183.848C216.437 183.512 216.941 183.32 217.517 183.32C218.093 183.32 218.489 183.752 218.489 184.376V188ZM221.126 182.6V191H222.026V187.712C222.434 187.964 222.926 188.096 223.478 188.096C225.11 188.096 226.214 186.968 226.214 185.3C226.214 183.644 225.17 182.516 223.622 182.516C222.998 182.516 222.446 182.708 222.026 183.056V182.6H221.126ZM225.278 185.3C225.278 186.476 224.51 187.28 223.394 187.28C222.83 187.28 222.35 187.1 222.026 186.776V183.86C222.35 183.524 222.83 183.32 223.394 183.32C224.51 183.32 225.278 184.124 225.278 185.3ZM227.282 185.3C227.282 186.968 228.398 188.096 230.042 188.096C231.686 188.096 232.814 186.968 232.814 185.3C232.814 183.644 231.686 182.516 230.042 182.516C228.398 182.516 227.282 183.644 227.282 185.3ZM228.206 185.3C228.206 184.124 228.95 183.32 230.042 183.32C231.122 183.32 231.878 184.124 231.878 185.3C231.878 186.476 231.122 187.28 230.042 187.28C228.95 187.28 228.206 186.476 228.206 185.3ZM237.205 183.164C236.797 182.744 236.173 182.516 235.549 182.516C234.433 182.516 233.917 183.272 233.917 184.052C233.917 184.976 234.625 185.312 235.381 185.612C236.065 185.9 236.449 186.068 236.449 186.5C236.449 186.86 236.197 187.34 235.489 187.34C235.069 187.34 234.577 187.16 234.301 186.836L233.773 187.364C234.193 187.82 234.853 188.096 235.549 188.096C236.761 188.096 237.349 187.268 237.349 186.464C237.349 185.588 236.641 185.252 235.933 184.952C235.297 184.688 234.817 184.508 234.817 184.028C234.817 183.692 235.045 183.272 235.621 183.272C235.981 183.272 236.449 183.44 236.677 183.692L237.205 183.164ZM243.467 185.552C243.467 183.692 242.639 182.516 241.031 182.516C239.447 182.516 238.427 183.644 238.427 185.276C238.427 186.98 239.555 188.096 241.211 188.096C242.063 188.096 242.747 187.796 243.239 187.292L242.699 186.728C242.363 187.076 241.871 187.28 241.271 187.28C240.167 187.28 239.459 186.596 239.375 185.552H243.467ZM241.031 183.308C241.919 183.308 242.459 183.92 242.567 184.892H239.375C239.483 183.92 240.131 183.308 241.031 183.308ZM247.208 182.528C246.656 182.528 246.14 182.804 245.744 183.26V182.6H244.844V188H245.744V184.052C246.068 183.596 246.584 183.308 247.16 183.308C247.304 183.308 247.448 183.32 247.58 183.344V182.552C247.46 182.54 247.34 182.528 247.208 182.528ZM146.958 200H147.858V194.6H146.958V200ZM146.814 192.98C146.814 193.316 147.078 193.58 147.414 193.58C147.75 193.58 148.014 193.316 148.014 192.98C148.014 192.644 147.75 192.38 147.414 192.38C147.078 192.38 146.814 192.644 146.814 192.98ZM149.594 194.6V200H150.494V195.86C150.818 195.524 151.298 195.32 151.862 195.32C152.666 195.32 153.206 195.896 153.206 196.736V200H154.106V196.736C154.106 195.416 153.302 194.516 152.078 194.516C151.454 194.516 150.914 194.708 150.494 195.056V194.6H149.594ZM155.29 195.32H156.046V200H156.97V195.32H158.53V194.6H156.97V192.74C156.97 192.116 157.414 191.684 158.038 191.684C158.218 191.684 158.398 191.732 158.53 191.804V191.036C158.338 190.952 158.11 190.916 157.882 190.916C156.778 190.916 156.046 191.636 156.046 192.74V194.6H155.29V195.32ZM159.301 197.3C159.301 198.968 160.417 200.096 162.061 200.096C163.705 200.096 164.833 198.968 164.833 197.3C164.833 195.644 163.705 194.516 162.061 194.516C160.417 194.516 159.301 195.644 159.301 197.3ZM160.225 197.3C160.225 196.124 160.969 195.32 162.061 195.32C163.141 195.32 163.897 196.124 163.897 197.3C163.897 198.476 163.141 199.28 162.061 199.28C160.969 199.28 160.225 198.476 160.225 197.3ZM168.587 194.528C168.035 194.528 167.519 194.804 167.123 195.26V194.6H166.223V200H167.123V196.052C167.447 195.596 167.963 195.308 168.539 195.308C168.683 195.308 168.827 195.32 168.959 195.344V194.552C168.839 194.54 168.719 194.528 168.587 194.528ZM176.735 200H177.635V196.376C177.635 195.272 176.987 194.516 175.967 194.516C175.211 194.516 174.563 194.78 174.107 195.26C173.819 194.792 173.339 194.516 172.727 194.516C172.103 194.516 171.563 194.708 171.143 195.056V194.6H170.243V200H171.143V195.86C171.467 195.524 171.947 195.32 172.511 195.32C173.099 195.32 173.495 195.752 173.495 196.376V200H174.395V196.376C174.395 196.196 174.371 196.016 174.335 195.848C174.683 195.512 175.187 195.32 175.763 195.32C176.339 195.32 176.735 195.752 176.735 196.376V200ZM183.524 199.412C183.152 199.412 182.96 199.256 182.96 198.944V196.22C182.96 195.296 182.336 194.516 181.004 194.516C180.296 194.516 179.708 194.744 179.228 195.224L179.696 195.692C179.996 195.392 180.5 195.26 180.932 195.26C181.76 195.26 182.06 195.752 182.06 196.22V196.94C182.06 196.94 181.76 196.856 181.244 196.856C179.936 196.856 179.024 197.42 179.024 198.536C179.024 199.352 179.528 200.096 180.596 200.096C181.196 200.096 181.736 199.856 182.144 199.46C182.288 199.844 182.636 200.072 183.14 200.072C183.284 200.072 183.44 200.048 183.524 200.012V199.412ZM180.86 199.34C180.164 199.34 179.924 198.884 179.924 198.44C179.924 197.78 180.452 197.492 181.316 197.492C181.784 197.492 182.06 197.576 182.06 197.576V198.836C181.736 199.172 181.268 199.34 180.86 199.34ZM184.234 195.32H184.93V198.32C184.93 199.388 185.602 200.096 186.658 200.096C186.874 200.096 187.102 200.06 187.294 199.976V199.196C187.162 199.28 186.982 199.316 186.814 199.316C186.238 199.316 185.854 198.908 185.854 198.32V195.32H187.294V194.6H185.854V193.4H184.93V194.6H184.234V195.32ZM188.583 200H189.483V194.6H188.583V200ZM188.439 192.98C188.439 193.316 188.703 193.58 189.039 193.58C189.375 193.58 189.639 193.316 189.639 192.98C189.639 192.644 189.375 192.38 189.039 192.38C188.703 192.38 188.439 192.644 188.439 192.98ZM190.883 197.3C190.883 198.968 191.999 200.096 193.643 200.096C195.287 200.096 196.415 198.968 196.415 197.3C196.415 195.644 195.287 194.516 193.643 194.516C191.999 194.516 190.883 195.644 190.883 197.3ZM191.807 197.3C191.807 196.124 192.551 195.32 193.643 195.32C194.723 195.32 195.479 196.124 195.479 197.3C195.479 198.476 194.723 199.28 193.643 199.28C192.551 199.28 191.807 198.476 191.807 197.3ZM197.805 194.6V200H198.705V195.86C199.029 195.524 199.509 195.32 200.073 195.32C200.877 195.32 201.417 195.896 201.417 196.736V200H202.317V196.736C202.317 195.416 201.513 194.516 200.289 194.516C199.665 194.516 199.125 194.708 198.705 195.056V194.6H197.805ZM211.557 200V191H210.657V194.9C210.249 194.66 209.757 194.516 209.217 194.516C207.585 194.516 206.481 195.644 206.481 197.3C206.481 198.968 207.525 200.096 209.073 200.096C209.685 200.096 210.225 199.904 210.657 199.568V200H211.557ZM207.405 197.3C207.405 196.124 208.173 195.32 209.289 195.32C209.865 195.32 210.333 195.512 210.657 195.836V198.764C210.333 199.088 209.853 199.28 209.289 199.28C208.173 199.28 207.405 198.476 207.405 197.3ZM218.014 197.552C218.014 195.692 217.186 194.516 215.578 194.516C213.994 194.516 212.974 195.644 212.974 197.276C212.974 198.98 214.102 200.096 215.758 200.096C216.61 200.096 217.294 199.796 217.786 199.292L217.246 198.728C216.91 199.076 216.418 199.28 215.818 199.28C214.714 199.28 214.006 198.596 213.922 197.552H218.014ZM215.578 195.308C216.466 195.308 217.006 195.92 217.114 196.892H213.922C214.03 195.92 214.678 195.308 215.578 195.308ZM222.392 195.164C221.984 194.744 221.36 194.516 220.736 194.516C219.62 194.516 219.104 195.272 219.104 196.052C219.104 196.976 219.812 197.312 220.568 197.612C221.252 197.9 221.636 198.068 221.636 198.5C221.636 198.86 221.384 199.34 220.676 199.34C220.256 199.34 219.764 199.16 219.488 198.836L218.96 199.364C219.38 199.82 220.04 200.096 220.736 200.096C221.948 200.096 222.536 199.268 222.536 198.464C222.536 197.588 221.828 197.252 221.12 196.952C220.484 196.688 220.004 196.508 220.004 196.028C220.004 195.692 220.232 195.272 220.808 195.272C221.168 195.272 221.636 195.44 221.864 195.692L222.392 195.164ZM223.938 200H224.838V194.6H223.938V200ZM223.794 192.98C223.794 193.316 224.058 193.58 224.394 193.58C224.73 193.58 224.994 193.316 224.994 192.98C224.994 192.644 224.73 192.38 224.394 192.38C224.058 192.38 223.794 192.644 223.794 192.98ZM225.975 201.416C225.975 202.4 226.923 203.096 228.435 203.096C230.019 203.096 231.195 202.352 231.195 201.272C231.195 200.276 230.199 199.616 228.651 199.616C227.871 199.616 227.391 199.364 227.391 199.016C227.391 198.668 227.763 198.416 228.447 198.416C229.731 198.416 230.595 197.624 230.595 196.46C230.595 196.076 230.499 195.74 230.331 195.452C230.499 195.332 230.739 195.236 230.991 195.236C231.087 195.236 231.159 195.248 231.231 195.26V194.54C231.123 194.528 231.027 194.516 230.919 194.516C230.535 194.516 230.175 194.684 229.911 194.972C229.539 194.684 229.047 194.516 228.471 194.516C227.211 194.516 226.335 195.296 226.335 196.484C226.335 197.204 226.659 197.816 227.271 198.128C226.767 198.32 226.515 198.656 226.515 199.04C226.515 199.424 226.743 199.736 227.211 199.94C226.467 200.192 225.975 200.708 225.975 201.416ZM226.911 201.416C226.911 200.768 227.583 200.324 228.651 200.324C229.611 200.324 230.271 200.708 230.271 201.284C230.271 201.932 229.455 202.388 228.435 202.388C227.475 202.388 226.911 201.992 226.911 201.416ZM227.235 196.46C227.235 195.74 227.751 195.236 228.483 195.236C229.215 195.236 229.719 195.74 229.719 196.46C229.719 197.192 229.215 197.696 228.483 197.696C227.751 197.696 227.235 197.192 227.235 196.46ZM232.516 194.6V200H233.416V195.86C233.74 195.524 234.22 195.32 234.784 195.32C235.588 195.32 236.128 195.896 236.128 196.736V200H237.028V196.736C237.028 195.416 236.224 194.516 235 194.516C234.376 194.516 233.836 194.708 233.416 195.056V194.6H232.516ZM243.467 197.552C243.467 195.692 242.639 194.516 241.031 194.516C239.447 194.516 238.427 195.644 238.427 197.276C238.427 198.98 239.555 200.096 241.211 200.096C242.063 200.096 242.747 199.796 243.239 199.292L242.699 198.728C242.363 199.076 241.871 199.28 241.271 199.28C240.167 199.28 239.459 198.596 239.375 197.552H243.467ZM241.031 195.308C241.919 195.308 242.459 195.92 242.567 196.892H239.375C239.483 195.92 240.131 195.308 241.031 195.308ZM247.208 194.528C246.656 194.528 246.14 194.804 245.744 195.26V194.6H244.844V200H245.744V196.052C246.068 195.596 246.584 195.308 247.16 195.308C247.304 195.308 247.448 195.32 247.58 195.344V194.552C247.46 194.54 247.34 194.528 247.208 194.528Z" fill="#494949"/>
</g>
<defs>
<clipPath id="clip0_301_7">
<rect width="250" height="206.542" fill="white"/>
</clipPath>
</defs>
</svg>
