<?xml version="1.0" encoding="utf-8"?>
<!-- Generator: Adobe Illustrator 25.1.0, SVG Export Plug-In . SVG Version: 6.00 Build 0)  -->
<svg version="1.1" id="Layer_1" xmlns="http://www.w3.org/2000/svg" xmlns:xlink="http://www.w3.org/1999/xlink" x="0px" y="0px"
	 viewBox="0 0 379.1 313.2" style="enable-background:new 0 0 379.1 313.2;" xml:space="preserve">
<style type="text/css">
	.st0{fill:none;stroke:#000000;}
	.st1{fill:none;stroke:#000000;stroke-width:0.48;}
	.st2{fill:none;stroke:#2B2B2B;stroke-width:1.5;}
	.st3{fill:none;stroke:#000000;stroke-width:0.75;}
</style>
<g id="Layer_2-2">
	<g id="Layer_2-2-2">
		<path class="st0" d="M19.5,122.1c6.1-7.6,8.1-17.6,11.5-26.5c1.9-4.9,6.4-8.5,7-13.7c0.2-2,0.1-4.3-1.2-5.8
			c-0.9-1.2-1.3-2.7-1.2-4.2c0.1-1.4,0.5-2.8,1.3-4.1"/>
		<path class="st0" d="M19.5,122.1c9-1.6,19,2,27.3,5C57,130.8,67,135.4,77,139.8c-4.4-6.3-8.7-14.4-2.6-21.2"/>
		<path class="st0" d="M17.9,124.1c-35,51.9-8.2,122.6,3.4,179.2"/>
		<path class="st0" d="M21.3,303.5c-7.3,16.4,108,4.8,111.7,8.1c-6.6-18.9-6.4-39.5-12.3-58.7"/>
		<path class="st0" d="M28.5,210.3c11.4,11.7,23.2,22.9,35.5,33.7c19.6-14.5,78.6-35.1,37.4-54.8"/>
		<path class="st0" d="M120.2,203c19,9.3,32.6,31.8,56.2,25.1"/>
		<path class="st0" d="M83.4,233.4c75.8,45.5,99.1,41.4,174.7-0.4"/>
		<path class="st0" d="M176.2,228.1c47.3-0.8,96.7-35.6,139,0.7"/>
		<path class="st0" d="M258.2,233.2c7.2,6.2,20.6,4.4,30,5.6c8.3,2.6,15.9,10.4,25,8.5c-1-6.6-19.2-11.8-26.1-16.8"/>
		<path class="st0" d="M293.2,232.6c8-4.1,21.5,12.3,31.8,9.2c1-5.8-12.8-8-16.5-13.1"/>
		<path class="st0" d="M325.8,238.9c5.6-2.6-9.1-6.5-10.6-10.1"/>
		<path class="st0" d="M296.4,224.4c2.9,0.7,11.4,3.6,12.2,4.4"/>
		<path class="st0" d="M296.5,224.4c-2.7-1-6.1-0.7-8.5-2.7"/>
		<path class="st0" d="M286.5,211.9c4.2,2,8.1,4.4,11.9,7"/>
		<path class="st0" d="M305,220.9c-45-37.4-127.9,4.3-182.3-41.9"/>
		<path class="st0" d="M280.5,207.1c4.1,0.1,8.7-1.1,11.9,2.3c1,1.1,1.9,2.4,2.5,3.8"/>
		<path class="st0" d="M109.3,194.6c-1.2-6.9-2.1-14.2-4.9-20.7"/>
		<path class="st0" d="M109.2,190c22.3-12.5,6.1-13.9-5.3-26.1"/>
		<path class="st0" d="M98.6,159.4c2.3,3.6,4.6,11.8,6,14.8"/>
		<line class="st0" x1="104.5" y1="174.1" x2="104.5" y2="174.1"/>
		<path class="st0" d="M103.9,163.9c-7.3-12.6-17.3-24.8-30.9-31.1"/>
		<line class="st0" x1="282.5" y1="239.8" x2="299.9" y2="262.5"/>
		<line class="st0" x1="370" y1="261.6" x2="300" y2="262.6"/>
		<line class="st0" x1="378.5" y1="257.6" x2="370" y2="261.4"/>
		<path class="st0" d="M378.3,257.7L378.3,257.7c0.1,0,0.2-0.1,0.2-0.2c0-0.1,0-0.2,0-0.3c0,0,0-0.1,0-0.1v-0.2l-0.2-9.2l-0.9-0.4"
			/>
		<path class="st0" d="M299,260.8c-2.4-17.4,71.1-10.8,79.2-13.1"/>
		<path class="st0" d="M287.7,239.7c3.8,4.5,11,22.6,13.7,11.1c10.3-4.9,47,4.7,26.9-12.5"/>
		<path class="st0" d="M294.3,242.7c2.1,2.8,4,5.5,6,8.3"/>
		<path class="st0" d="M299.1,248c2.3,0,4.5-0.1,6.8-0.4"/>
		<path class="st0" d="M315.1,246.5c6-0.5,12-0.6,18-1.3"/>
		<path class="st0" d="M314,243.6c5.6,0.2,11.3-0.4,16.9-0.1"/>
		<path class="st0" d="M311.8,241.2l3.1-0.1"/>
		<path class="st0" d="M309.1,239.4h2"/>
		<line class="st0" x1="327" y1="240.1" x2="329" y2="240.1"/>
		<path class="st0" d="M303.7,238.6c1.4,0,2.8,0,4.2-0.2"/>
		<path class="st0" d="M302.2,237.5c1.2,0,2.4-0.1,3.7-0.2"/>
		<line class="st0" x1="301" y1="236.6" x2="304" y2="236.6"/>
		<path class="st0" d="M298,245.7c0.7,0,1.4,0,2.2-0.1"/>
		<path class="st0" d="M325.7,235c-6.8-4.8-11-16.1-20.3-14.9"/>
		<line class="st0" x1="309" y1="222.6" x2="312" y2="222.6"/>
		<line class="st0" x1="311" y1="223.6" x2="314" y2="223.6"/>
		<line class="st0" x1="315" y1="226.6" x2="317" y2="226.6"/>
		<line class="st0" x1="316.9" y1="229" x2="318.7" y2="228.9"/>
		<path class="st0" d="M311.1,219.8c0.3-0.1,25.2-1.1,25.4-1.4c-2.1-3.1,4.4-3.8,5.5-1.6c-1.1,2,1.2,0.6,1.8,1.9"/>
		<path class="st0" d="M336.7,218.7c1,4,3.7,1.5,5-0.7"/>
		<line class="st0" x1="343.9" y1="218.7" x2="377.5" y2="246.8"/>
		<line class="st0" x1="321.9" y1="222.4" x2="332" y2="222.1"/>
		<line class="st0" x1="334.2" y1="224" x2="332" y2="222.1"/>
		<line class="st0" x1="323.9" y1="224.5" x2="334.2" y2="224"/>
		<line class="st0" x1="321.9" y1="222.4" x2="323.9" y2="224.5"/>
		<path class="st0" d="M336.7,227c-2.3-0.2-10.1,1.6-11.4-1.4C327,224.8,336.9,223.6,336.7,227z"/>
		<line class="st0" x1="328.2" y1="228.5" x2="330.6" y2="230.6"/>
		<line class="st0" x1="340.6" y1="230.1" x2="330.6" y2="230.6"/>
		<line class="st0" x1="328.2" y1="228.5" x2="338.5" y2="227.9"/>
		<line class="st0" x1="340.6" y1="230.1" x2="338.5" y2="227.9"/>
		<line class="st0" x1="331.4" y1="231.6" x2="333.3" y2="233.6"/>
		<line class="st0" x1="343.6" y1="233.1" x2="333.3" y2="233.6"/>
		<line class="st0" x1="341.7" y1="230.7" x2="331.4" y2="231.6"/>
		<line class="st0" x1="343.6" y1="233.1" x2="341.7" y2="230.7"/>
		<line class="st0" x1="336.5" y1="221.7" x2="345.5" y2="221.3"/>
		<line class="st0" x1="347.8" y1="223.1" x2="345.6" y2="221.4"/>
		<line class="st0" x1="338.5" y1="223.5" x2="347.8" y2="223.1"/>
		<line class="st0" x1="336.5" y1="221.7" x2="338.5" y2="223.5"/>
		<line class="st0" x1="339.5" y1="224.6" x2="349.1" y2="224.2"/>
		<line class="st0" x1="351.3" y1="226" x2="349.1" y2="224.2"/>
		<line class="st0" x1="341.7" y1="226.5" x2="351.3" y2="226"/>
		<line class="st0" x1="339.5" y1="224.6" x2="341.7" y2="226.6"/>
		<line class="st0" x1="342.6" y1="227.4" x2="352.8" y2="227"/>
		<line class="st0" x1="354.8" y1="229.1" x2="352.8" y2="227"/>
		<line class="st0" x1="344.7" y1="229.6" x2="354.8" y2="229.1"/>
		<line class="st0" x1="342.6" y1="227.4" x2="344.7" y2="229.6"/>
		<line class="st0" x1="345.9" y1="230.6" x2="356.1" y2="230.1"/>
		<line class="st0" x1="348.2" y1="232.6" x2="345.9" y2="230.6"/>
		<line class="st0" x1="358" y1="231.9" x2="348.2" y2="232.6"/>
		<line class="st0" x1="356.1" y1="230.1" x2="358" y2="231.9"/>
		<path class="st0" d="M354,245.7c7.5,1.2,0.8-9.2-1.4-2.7C352.3,244.4,352,245.8,354,245.7z"/>
		<path class="st0" d="M353.9,244.6c-0.4-1.6,0.6-2.5,1.9-3.1"/>
		<path class="st0" d="M366.7,244.4c2.6,2.4,6.4-1.4,3-3.4C367.8,239.9,365.5,242.9,366.7,244.4z"/>
		<path class="st0" d="M369,241.4c0.8,0.8,0.5,1.7,0.4,2.6"/>
		<path class="st0" d="M364.4,241.2c2.1,0.5,3.7-2.2,1.7-3.5C363.7,236.2,361.2,240.8,364.4,241.2z"/>
		<path class="st0" d="M365.3,238.1c-0.7,0.1-1.1,1.3-0.9,2"/>
		<path class="st0" d="M349.5,238.8c1.2-2.5,4.7,0,3.7,2.2C351.3,242.5,348.7,241.4,349.5,238.8z"/>
		<path class="st0" d="M351,238.3c0.3,0.2,0.6,0.4,0.8,0.6"/>
		<path class="st0" d="M359.2,236.5c-0.9,1.8,2.3,1.1,3.3,0.9C365.2,234.9,358.6,231.9,359.2,236.5z"/>
		<path class="st0" d="M351.5,237.5c0.3-5.6-7.7,0.6-2.5,0.9"/>
		<path class="st0" d="M361.2,234.8c-0.4,0.4-0.6,1-0.5,1.6"/>
		<path class="st0" d="M349.5,236c-0.5,0.1-0.8,0.5-0.8,1c0,0,0,0,0,0c0,0,0,0.1,0,0.1"/>
	</g>
</g>
<path class="st0" d="M54,84.5c-0.9-0.1-1.8-0.6-2.8-0.5c-0.5,0.1-0.9,0.3-1.4,0.4c-1.2,0.1-2.3-0.4-3.2-1.2l-2.1-1.5
	c-0.9-0.6-1.8-1.4-2.6-2.2c-3.2-3.8-4.8-8.8-5.2-13.8c-0.2-1.7-0.1-3.5,0.5-5.1c1.4-2.9,4.4-4.6,7.6-4.3c1.5,0.1,2.9,0.7,4.1,1.5
	c1,0.7,1.9,1.7,3,2.3"/>
<path class="st0" d="M54,77.8c-1.7-0.2-2.7-2.2-4.4-2.8c-1.2-0.4-2.7,0.1-3.8-0.4c-1.1-0.6-1.7-1.8-1.5-3c0.2-1.2,0.9-2.3,1.8-3
	c1-0.7,2-1.2,3.1-1.7"/>
<path class="st0" d="M40,71.7c-0.7-0.6-1.1-1.5-1.2-2.4c-0.5-2.4-0.4-4.9,0.3-7.3c0.1-0.6,0.4-1.1,0.7-1.7c1.1-1.2,2.7-1.8,4.3-1.5
	c0.8,0,1.5,0.3,2.1,0.7c0.4,0.4,0.8,0.8,1.1,1.3c1.2,1.6,2.2,3.4,2.7,5.3c0.5,2,0,4.1-1.5,5.5"/>
<path class="st0" d="M49,73.3c0.3-0.1,0.5-0.2,0.8-0.4c0.5-0.4,1.1-0.7,1.8-0.9c0.2-0.1,0.4-0.1,0.5-0.1c0.5,0.1,0.7,0.7,0.7,1.2
	c-0.1,0.5-0.1,1,0,1.5c0.2,0.5,0.6,0.8,1,1.1c0.4,0.3,0.8,0.7,0.9,1.1c0.1,0.5-0.2,1.1-0.7,1.1"/>
<path class="st0" d="M52.2,86.5c2.6,5.3,2.4,11.7,5.7,16.6c2.2,3.3,5.7,5.5,9.1,7.6c6.6,4,13.2,8.1,20.5,10.4
	c1.6,0.6,3.2,0.8,4.9,0.8c3.5-0.3,6.4-2.7,7.2-6.1c0.5-2.1,0.3-4.8,2.1-6c1.4-0.9,3.4-0.6,4.5-1.8s0.6-3-0.1-4.5
	c1.9,0,3.5-1.5,3.8-3.3c0.2-1.6-0.8-3.4,0-4.9c1-2.1,4.3-1.6,6.3-3c1.5-1.2,2.2-3.2,1.7-5.1c-0.5-1.8-1.5-3.5-2.7-5
	c-0.5-0.7-0.9-1.4-1.3-2.2l-2.9-6.8c-0.2-0.4-0.4-0.9-0.4-1.4c-0.1-1.3,1-2.3,1.9-3.1"/>
<path class="st1" d="M103.6,91.2c-0.1,0.7,0.3,1.4,0.9,1.8c0.6,0.4,1.3,0.5,1.9,0.3c0.7-0.1,1.3-0.4,1.9-0.7
	c0.2-0.1,0.5-0.2,0.7-0.3c0.3-0.1,0.5-0.1,0.8-0.2c0.8-0.2,1.7-0.2,2.4,0.1"/>
<path class="st2" d="M113.9,66.6c-2.6,0.4-5.1-0.7-7.4-2s-4.3-2.9-6.8-3.8c-1.1-0.3-2.3-0.2-3.2,0.4c-1.1,0.5-2.1,1.3-3.2,1.8"/>
<path class="st0" d="M113.4,53.5c1,1.6,1.6,3.3,1.8,5.2c0.2,1,0.3,2,0.4,3c0,1-0.3,2-0.8,2.9c-0.2,0.4-0.4,0.7-0.7,1"/>
<path class="st0" d="M30.3,94.9c-0.5-3.6-0.3-7.3-0.5-11c-0.3-6.4-1.6-12.7-3.8-18.7"/>
<path class="st0" d="M25,64.8c-2.1-1.6-3.1-4.2-4.1-6.7l-1.6-4.2c-0.2-0.6-0.4-1.1-0.6-1.7c-1.4-4.4-1.6-9.1-0.3-13.6
	c0.5-1.5,1-3,1.6-4.5l1.7-4.4"/>
<path class="st0" d="M24.2,24.5c-0.5,1.1-0.9,2.3-1,3.5c0,1,0.1,2.1,0.3,3.1c0.6,4.5-0.3,9.3-3.1,12.9"/>
<path class="st0" d="M27.5,18.4c-1.3,0.6-2.2,2-2.2,3.4c-0.1,1.7,0.9,3.2,1.6,4.8c1.9,3.7,2.8,7.9,2.7,12.1"/>
<path class="st0" d="M27.7,24.3c0.3,1,0.6,2.1,1,3.1c0.3,1,0.8,2,1.3,2.9c1.4,1.8,3.1,3.3,5,4.3"/>
<path class="st0" d="M33,14.5c-1.3,1.1-2.3,2.7-2.7,4.3c-0.4,1.7-0.5,3.4-0.3,5.1c0.1,0.8,0.3,1.6,0.6,2.3c0.8,1.1,1.9,2,3.2,2.6"/>
<path class="st0" d="M36.7,15.2c-0.1,2.2-1.3,4.3-1.8,6.4c-0.1,0.8-0.2,1.6-0.2,2.4c-0.1,0.9,0.1,1.7,0.4,2.6c0.7,1.6,2.5,2.4,4.1,3
	"/>
<path class="st0" d="M40.1,14.4c-0.5,1.9-0.7,3.8-0.8,5.8c-0.1,0.8-0.1,1.7,0,2.5c0.2,1,0.5,1.9,0.9,2.9c0.5,1.3,1.3,2.5,2.2,3.6"/>
<path class="st0" d="M36.6,36l4.8,3c0.7,0.4,1.3,0.9,1.9,1.5c1.5,1.7,1.4,4.2,0.7,6.3"/>
<path class="st0" d="M40.9,31.8c2.2,0.9,4.2,2.2,5.9,3.9c1.7,1.7,2.4,4.1,2,6.5"/>
<path class="st0" d="M35.4,30.9c1.9,0.9,3.7,1.9,5.4,3c1.7,1.2,3.1,2.7,4.1,4.5"/>
<path class="st0" d="M44.2,11.1c-0.7,1.8-1.2,3.7-1.4,5.7c-0.4,3.8,0.3,7.6,2.2,10.9c1,1.7,2.3,3.3,3.3,5"/>
<path class="st0" d="M47,16.6c-0.8,1.9-1.1,3.9-0.8,5.9c0.3,1.3,0.8,2.6,1.6,3.7c0.3,0.5,0.6,0.9,1,1.3c0.6,0.4,1.2,0.7,1.9,0.8
	c2.1,0.5,4.4,0.5,6.5,1.1s4.2,2,4.9,4"/>
<path class="st0" d="M34.3,13.5c0.8-0.6,1.7-0.9,2.7-0.8c0.9,0,1.9-0.1,2.8-0.3c1.2-0.4,2.2-1.2,2.8-2.4"/>
<path class="st0" d="M26.1,37.3c0.3,2.2,0.8,4.4,1.6,6.6c0.7,2.8,0.9,5.6,0.6,8.5"/>
<path class="st0" d="M21.7,48.6c0.1,1.6,0.7,3.2,1.6,4.6c0.8,1.4,1.8,2.7,2.7,4.1"/>
<path class="st0" d="M23.9,46.7c0.7,1.3,1.3,2.6,1.8,4c0.2,0.9,0.5,1.7,0.9,2.5"/>
<path class="st0" d="M30.8,41.5c0.5,2.8,2,5.5,1.7,8.4"/>
<path class="st0" d="M47.4,56.2c1-0.3,2.1-0.2,3.1,0.3c1,0.5,1.9,1,2.7,1.7c2.3,1.8,4.5,3.6,6.7,5.5c1.3,1,2.3,2.2,3,3.7
	c0.4,1,0.6,2.2,1.6,2.7c0.6,0.2,1.2,0.1,1.7-0.2c0.5-0.3,1-0.7,1.3-1.2l2.3-2.5c0.4-0.4,0.8-0.9,1.2-1.4c0.4-0.7,0.8-1.4,1.1-2.1
	c0.8-1.5,1.8-3,2.9-4.3"/>
<path class="st0" d="M50.2,32.4c0.6,2.1,1.1,4.3,1.3,6.5c0.3,3.5-0.4,7.1-2,10.2"/>
<path class="st0" d="M53.6,44.6c0.9-1.3,2.1-2.4,3.4-3.2c1.3-0.9,2.8-1.8,4.3-2.5"/>
<path class="st0" d="M57.9,33.3c-1.7,2.3-3.5,4.9-3.8,7.8"/>
<path class="st0" d="M52.5,32.1c0.1,0.3,0.3,0.5,0.4,0.7c0.7,0.9,1.1,2,1.3,3.1"/>
<path class="st0" d="M53.2,13.1c-0.7,1.5-0.6,3.3,0.4,4.6c1,1.3,2.3,2.4,3.7,3.1c0.5,0.3,1.1,0.6,1.7,0.8"/>
<path class="st0" d="M50.8,10.4c2.2-0.1,4.4,0.1,6.5,0.7c2.1,0.6,4,1.8,5.4,3.5c0.4,0.5,0.7,1.1,1,1.6c1.1,2,1.8,4.2,1.9,6.5"/>
<path class="st0" d="M63.1,11.4c1.7,0.4,3.2,1.1,4.5,2.2c0.6,0.5,1.2,1.1,1.7,1.8c1.2,1.8,1.7,3.9,1.4,6c-0.2,1.4-0.7,2.6-1,4
	c-0.2,1.2-0.3,2.5-0.3,3.8c-0.1,3.9,0.6,7.7,2.1,11.3"/>
<path class="st0" d="M71.7,15.3c0.6,0.9,1.3,1.8,2,2.6c1.7,2.3,2.1,5.3,1.1,8c-0.5,1.1-1.1,2.1-1.6,3.3c-0.6,1.1-0.8,2.3-0.7,3.5"/>
<path class="st0" d="M73.7,14.5c1.2,0.4,2.4,1,3.5,1.7c0.8,0.6,1.5,1.3,2.1,2c0.7,0.8,1.4,1.7,2.1,2.6c0.4,0.5,0.7,1,1,1.5
	c0.3,0.7,0.5,1.4,0.6,2.1c0.6,4.8-0.9,9.5-2.5,14"/>
<path class="st0" d="M77.9,21.7c0.8,1.2,1.1,2.6,1.1,4.1c0.1,2.9-0.3,5.8-1.2,8.6"/>
<path class="st0" d="M85.3,26.6c-0.2,1.9-0.3,3.7-0.5,5.6c-0.1,1.2-0.3,2.5-0.6,3.7c-0.5,1.4-1.1,2.8-1.9,4.1
	c-0.9,1.6-1.7,3.3-2.3,5c-1.4,4-1.6,8.3-1.6,12.6"/>
<path class="st0" d="M84.5,43c-0.2,2.6-0.9,5.1-2,7.5c-0.4,1.2-1,2.4-1.8,3.5"/>
<path class="st0" d="M77.9,40.4L77.2,45c-0.4,2.7-0.8,5.5-1.1,8.2c-0.1,0.7-0.1,1.4-0.1,2.1c0,1.4,0.3,2.8,0.8,4.1"/>
<path class="st0" d="M88.8,27.4c1.1,1,2,2.2,2.6,3.6c0.6,0.9,1,2,1.3,3c0.3,1.1,0.4,2.3,0.4,3.4c0.1,1.7,0.1,3.3,0.1,5
	c0,0.9,0,1.9-0.2,2.8c-0.3,1.6-1.1,3-2.1,4.2c-1,1.2-2.2,2.3-3.4,3.4"/>
<path class="st0" d="M48.1,10.6c-0.5,0.1-0.8-0.4-1-0.8c-0.3-0.6-0.5-1.4-0.4-2.1c0.2-1,0.7-1.8,1.6-2.4C49.1,4.9,50,4.5,51,4.3
	C51.8,4.1,52.6,4,53.5,4c0.9,0.1,1.7,0.4,2.3,1"/>
<path class="st0" d="M52.4,8.4c1.6,0.3,3.3-0.3,4.3-1.6c0.4-0.5,0.7-1.1,1-1.6c0.7-1,1.5-1.9,2.4-2.7"/>
<path class="st0" d="M60.8,4.8c0.4,1.1,0.5,2.3,0.2,3.4"/>
<path class="st0" d="M77.3,0.9c-0.4,1.1-0.6,2.4-0.6,3.6c0.2,0.9,0.4,1.7,0.9,2.6l0.2-0.4"/>
<path class="st0" d="M80.2,0.1c0.3,1.3,0.4,2.6,0.4,3.9"/>
<path class="st0" d="M85,3.3L87.9,4c0.3,0,0.5,0.1,0.8,0.3C89,4.5,89.2,4.7,89.4,5c2.2,3.1,2.9,7.1,1.9,10.7
	c-0.2,0.8-0.6,1.6-0.8,2.5c-0.4,1.6-0.5,3.3-0.1,4.9c0.1,0.3,0.5,0.7,0.6,0.4"/>
<path class="st0" d="M97.2,9.6c1.4,1.4,1.8,3.4,2.3,5.2c0.3,1,0.3,2,0.2,3c-0.2,0.6-0.5,1.1-0.8,1.7c-1.9,3.7-2,8.2-0.2,12l0.3-1.1"
	/>
<path class="st0" d="M102.8,12.9c-0.6-1.4-0.9-2.9-0.9-4.4c0-0.3,0-0.6,0.1-0.9c0.3-0.6,0.6-1.2,1-1.8c0.3-0.8,0.4-1.6,0.3-2.5"/>
<path class="st0" d="M107,13.1c-1.1,2.4-0.1,5.4-1,7.9c-0.6,1.5-1.9,2.8-2.1,4.4"/>
<path class="st0" d="M110.2,15.6c-0.3,2.5-0.2,5,0.4,7.5c0.3,1.3,0.8,2.6,1,3.9c0.3,1.3,0.1,2.7-0.5,3.9"/>
<path class="st0" d="M113,15.6c-0.1-0.6-0.1-1.2-0.1-1.9c0-0.4,0.1-0.8,0.3-1.2c0.2-0.8,0.5-1.5,1.1-2c0.6-0.5,1.5-0.4,2,0.1
	c0.2,0.4,0.3,0.8,0.2,1.3c0,0.6-0.1,1.2-0.2,1.8"/>
<path class="st0" d="M115.4,18.9c1.2-0.5,2.5,0.5,3.2,1.6c1,1.7,1.3,3.7,1,5.6c-0.3,1.9-0.9,3.8-1.8,5.5c-0.4,1.1-1.1,2.2-2,3"/>
<path class="st0" d="M121.4,28.9c2.2,2.7,4.3,5.6,5.3,8.9s0.7,7.3-1.7,9.8"/>
<path class="st0" d="M108.6,33.7c1.9,2.2,3.8,4.6,4.3,7.4c0.2,1.1,0.3,2.2,0.3,3.3c0,2.9,0.8,5.7,2.4,8.1c1.6,2.3,4.5,4,7.3,3.6
	c1.1-0.1,2.1-0.7,2.8-1.5"/>
<path class="st0" d="M117.5,40.6c-0.1,3.7,1.9,7.1,3.8,10.3c0.2,0.5,0.7,0.9,1.2,1.2"/>
<path class="st0" d="M119.8,34.7c-0.3,2.2,0.4,4.5,1.8,6.2c0.2,0.3,0.4,0.5,0.7,0.7c0.7,0.4,1.5,0.5,2.2,0.1"/>
<path class="st0" d="M104,29.8c0.7,1.4,1.2,2.9,1.5,4.4c0.3,2.2,0.3,4.4,0.1,6.6c-0.1,2.4,0.2,4.7,0.8,7c0.7,2.3,2,4.3,3.8,5.8v-0.6
	"/>
<path class="st0" d="M94.8,20.1c-0.9,2.5-1.1,5.2-0.5,7.8c0.6,2.6,1.7,5,3.2,7.2c0.5,0.7,1,1.5,1.5,2.3c1.1,2.2,0.9,4.8,0.7,7.2"/>
<path class="st0" d="M101.2,33.3c1.5,3.5,2.4,7.2,2.6,11c0.2,3.6-0.3,7.6-2.9,10.2"/>
<path class="st0" d="M70.9,9.1c1.8,1.4,4.1,1.9,6.3,2.5s4.5,1.4,5.9,3.1c0.5,0.6,1,1.3,1.3,2c0.8,1.3,1.5,2.7,1.9,4.2l0,0"/>
<path class="st0" d="M123.5,25.4c1.4-0.7,2.3-2.2,2.1-3.8c-0.2-1.6-1-3-2.2-3.9c-1.2-0.9-2.6-1.7-4.1-2.1"/>
<path class="st0" d="M131.2,20.5c0.4,2.4,0.8,5-0.3,7.1c-0.5,0.8-1.1,1.6-1.7,2.2c-0.9,0.9-1.9,1.9-3.1,1.7"/>
<path class="st0" d="M137,30.8c0.6,1.6,0.7,3.3,0.4,5c-0.2,0.7-0.5,1.3-0.9,1.9c-0.3,0.7-0.8,1.4-1.3,1.9c-0.6,0.5-1.4,0.9-2.1,1.2
	c-0.8,0.4-1.6,0.6-2.5,0.6c-0.3,0-0.6-0.2-0.6-0.5"/>
<path class="st0" d="M129.3,38.2c0.9-0.2,1.6-0.6,2.3-1.1c1.4-1,2.4-2.4,3-4c0.6-1.6,0.4-3.4-0.4-4.9"/>
<path class="st0" d="M68,23.8c-0.7,2.5-2.2,4.8-4.3,6.5"/>
<path class="st0" d="M61.8,23.4c0.2,0.9,0,1.8-0.5,2.5c-0.5,0.7-1.1,1.4-1.7,1.9"/>
<path class="st0" d="M67.3,30.9c-0.7,2.9-2.1,5.7-2.2,8.7"/>
<path class="st0" d="M49,13.9c1,2,1.4,4.3,1.1,6.6c-0.2,1.1-0.3,2.1-0.2,3.2c0.1,1.1,0.8,2.1,1.8,2.5"/>
<path class="st3" d="M102.9,69.3c-1,0.6-2,1-3.1,1.3c-1.3,0.3-2.7,0.2-4,0.5c0.5,0,1,0.1,1.5,0.5c1.4,0.8,2.8,1.6,4.1,2.6"/>
</svg>
