<svg width="566" height="445" viewBox="0 0 566 445" fill="none" xmlns="http://www.w3.org/2000/svg">
<rect width="566" height="445" fill="#FFFDF7"/>
<rect x="5" y="5" width="126.551" height="126.551" fill="#626262"/>
<path d="M38.7153 68.7752C38.7153 66.8152 39.9953 65.4752 41.8553 65.4752C42.8353 65.4752 43.6353 65.8352 44.1753 66.4152L45.1153 65.4952C44.2953 64.6352 43.1553 64.1352 41.7753 64.1352C39.0353 64.1352 37.1753 66.0152 37.1753 68.7752C37.1753 71.5552 39.0353 73.4352 41.7753 73.4352C43.1553 73.4352 44.2953 72.9352 45.1153 72.0952L44.1753 71.1552C43.6353 71.7352 42.8353 72.0752 41.8553 72.0752C39.9953 72.0752 38.7153 70.7352 38.7153 68.7752ZM46.5889 68.7752C46.5889 71.5552 48.4489 73.4352 51.1889 73.4352C53.9289 73.4352 55.8089 71.5552 55.8089 68.7752C55.8089 66.0152 53.9289 64.1352 51.1889 64.1352C48.4489 64.1352 46.5889 66.0152 46.5889 68.7752ZM48.1289 68.7752C48.1289 66.8152 49.3689 65.4752 51.1889 65.4752C52.9889 65.4752 54.2489 66.8152 54.2489 68.7752C54.2489 70.7352 52.9889 72.0752 51.1889 72.0752C49.3689 72.0752 48.1289 70.7352 48.1289 68.7752ZM58.1254 64.2752V73.2752H59.6254V66.3752C60.1654 65.8152 60.9654 65.4752 61.9054 65.4752C63.2454 65.4752 64.1454 66.4352 64.1454 67.8352V73.2752H65.6454V67.8352C65.6454 65.6352 64.3054 64.1352 62.2654 64.1352C61.2254 64.1352 60.3254 64.4552 59.6254 65.0352V64.2752H58.1254ZM67.5184 65.4752H68.6784V70.4752C68.6784 72.2552 69.7984 73.4352 71.5584 73.4352C71.9184 73.4352 72.2984 73.3752 72.6184 73.2352V71.9352C72.3984 72.0752 72.0984 72.1352 71.8184 72.1352C70.8584 72.1352 70.2184 71.4552 70.2184 70.4752V65.4752H72.6184V64.2752H70.2184V62.2752H68.6784V64.2752H67.5184V65.4752ZM82.5675 69.1952C82.5675 66.0952 81.1875 64.1352 78.5075 64.1352C75.8675 64.1352 74.1675 66.0152 74.1675 68.7352C74.1675 71.5752 76.0475 73.4352 78.8075 73.4352C80.2275 73.4352 81.3675 72.9352 82.1875 72.0952L81.2875 71.1552C80.7275 71.7352 79.9075 72.0752 78.9075 72.0752C77.0675 72.0752 75.8875 70.9352 75.7475 69.1952H82.5675ZM78.5075 65.4552C79.9875 65.4552 80.8875 66.4752 81.0675 68.0952H75.7475C75.9275 66.4752 77.0075 65.4552 78.5075 65.4552ZM84.8637 64.2752V73.2752H86.3637V66.3752C86.9037 65.8152 87.7037 65.4752 88.6437 65.4752C89.9837 65.4752 90.8837 66.4352 90.8837 67.8352V73.2752H92.3837V67.8352C92.3837 65.6352 91.0437 64.1352 89.0037 64.1352C87.9637 64.1352 87.0637 64.4552 86.3637 65.0352V64.2752H84.8637ZM94.2567 65.4752H95.4167V70.4752C95.4167 72.2552 96.5367 73.4352 98.2967 73.4352C98.6567 73.4352 99.0367 73.3752 99.3567 73.2352V71.9352C99.1367 72.0752 98.8367 72.1352 98.5567 72.1352C97.5967 72.1352 96.9567 71.4552 96.9567 70.4752V65.4752H99.3567V64.2752H96.9567V62.2752H95.4167V64.2752H94.2567V65.4752Z" fill="#FFFDF7"/>
<rect x="5" y="355.545" width="37.9652" height="37.9652" fill="#626262"/>
<rect x="5" y="311.252" width="37.9652" height="37.9652" fill="#626262"/>
<rect x="93.5854" y="266.96" width="37.9652" height="37.9652" fill="#626262"/>
<rect x="93.5854" y="311.252" width="37.9652" height="37.9652" fill="#D1D1D1"/>
<rect x="49.2927" y="355.545" width="37.9652" height="37.9652" fill="#D1D1D1"/>
<rect x="49.2927" y="311.252" width="37.9652" height="37.9652" fill="#D1D1D1"/>
<rect x="49.2927" y="266.96" width="37.9652" height="37.9652" fill="#D1D1D1"/>
<rect x="5" y="266.96" width="37.9652" height="37.9652" fill="#D1D1D1"/>
<rect x="93.5854" y="355.545" width="37.9652" height="37.9652" fill="#626262"/>
<rect x="435.272" y="77.1338" width="55.9895" height="54.4167" fill="#626262"/>
<path d="M531.099 78.3993L561.822 131.01H500.376L531.099 78.3993Z" fill="#D1D1D1"/>
<path d="M531.099 5L558.726 20.5024V51.5073L531.099 67.0098L503.472 51.5073V20.5024L531.099 5Z" fill="#D1D1D1"/>
<ellipse cx="464.532" cy="36.2822" rx="29.2602" ry="28.4383" fill="#D1D1D1"/>
<path d="M465.819 266.96L496.365 322.046H435.272L465.819 266.96Z" fill="#D1D1D1"/>
<path d="M531.276 330.979L557.73 346.612V377.877L531.276 393.51L504.821 377.877V346.612L531.276 330.979Z" fill="#D1D1D1"/>
<ellipse cx="531.276" cy="295.247" rx="27.6375" ry="28.2878" fill="#D1D1D1"/>
<rect x="435.272" y="364.678" width="28.4362" height="28.4362" fill="#626262"/>
<rect x="435.272" y="333.399" width="28.4362" height="28.4362" fill="#626262"/>
<rect x="466.552" y="364.678" width="28.4362" height="28.4362" fill="#626262"/>
<rect x="466.552" y="333.399" width="28.4362" height="28.4362" fill="#626262"/>
<path d="M409.962 68.2753L399.962 62.5018L399.962 74.0488L409.962 68.2753ZM156.861 69.2753L400.962 69.2753L400.962 67.2753L156.861 67.2753L156.861 69.2753Z" fill="#626262"/>
<path d="M206.351 32.655H207.851V23.655H206.351V32.655ZM206.111 20.955C206.111 21.515 206.551 21.955 207.111 21.955C207.671 21.955 208.111 21.515 208.111 20.955C208.111 20.395 207.671 19.955 207.111 19.955C206.551 19.955 206.111 20.395 206.111 20.955ZM210.746 23.655V32.655H212.246V25.755C212.786 25.195 213.586 24.855 214.526 24.855C215.866 24.855 216.766 25.815 216.766 27.215V32.655H218.266V27.215C218.266 25.015 216.926 23.515 214.886 23.515C213.846 23.515 212.946 23.835 212.246 24.415V23.655H210.746ZM220.139 24.855H221.299V29.855C221.299 31.635 222.419 32.815 224.179 32.815C224.539 32.815 224.919 32.755 225.239 32.615V31.315C225.019 31.455 224.719 31.515 224.439 31.515C223.479 31.515 222.839 30.835 222.839 29.855V24.855H225.239V23.655H222.839V21.655H221.299V23.655H220.139V24.855ZM235.188 28.575C235.188 25.475 233.808 23.515 231.128 23.515C228.488 23.515 226.788 25.395 226.788 28.115C226.788 30.955 228.668 32.815 231.428 32.815C232.848 32.815 233.988 32.315 234.808 31.475L233.908 30.535C233.348 31.115 232.528 31.455 231.528 31.455C229.688 31.455 228.508 30.315 228.368 28.575H235.188ZM231.128 24.835C232.608 24.835 233.508 25.855 233.688 27.475H228.368C228.548 25.855 229.628 24.835 231.128 24.835ZM236.484 35.015C236.484 36.655 238.064 37.815 240.584 37.815C243.224 37.815 245.184 36.575 245.184 34.775C245.184 33.115 243.524 32.015 240.944 32.015C239.644 32.015 238.844 31.595 238.844 31.015C238.844 30.435 239.464 30.015 240.604 30.015C242.744 30.015 244.184 28.695 244.184 26.755C244.184 26.115 244.024 25.555 243.744 25.075C244.024 24.875 244.424 24.715 244.844 24.715C245.004 24.715 245.124 24.735 245.244 24.755V23.555C245.064 23.535 244.904 23.515 244.724 23.515C244.084 23.515 243.484 23.795 243.044 24.275C242.424 23.795 241.604 23.515 240.644 23.515C238.544 23.515 237.084 24.815 237.084 26.795C237.084 27.995 237.624 29.015 238.644 29.535C237.804 29.855 237.384 30.415 237.384 31.055C237.384 31.695 237.764 32.215 238.544 32.555C237.304 32.975 236.484 33.835 236.484 35.015ZM238.044 35.015C238.044 33.935 239.164 33.195 240.944 33.195C242.544 33.195 243.644 33.835 243.644 34.795C243.644 35.875 242.284 36.635 240.584 36.635C238.984 36.635 238.044 35.975 238.044 35.015ZM238.584 26.755C238.584 25.555 239.444 24.715 240.664 24.715C241.884 24.715 242.724 25.555 242.724 26.755C242.724 27.975 241.884 28.815 240.664 28.815C239.444 28.815 238.584 27.975 238.584 26.755ZM251.326 23.535C250.406 23.535 249.546 23.995 248.886 24.755V23.655H247.386V32.655H248.886V26.075C249.426 25.315 250.286 24.835 251.246 24.835C251.486 24.835 251.726 24.855 251.946 24.895V23.575C251.746 23.555 251.546 23.535 251.326 23.535ZM261.006 31.675C260.386 31.675 260.066 31.415 260.066 30.895V26.355C260.066 24.815 259.026 23.515 256.806 23.515C255.626 23.515 254.646 23.895 253.846 24.695L254.626 25.475C255.126 24.975 255.966 24.755 256.686 24.755C258.066 24.755 258.566 25.575 258.566 26.355V27.555C258.566 27.555 258.066 27.415 257.206 27.415C255.026 27.415 253.506 28.355 253.506 30.215C253.506 31.575 254.346 32.815 256.126 32.815C257.126 32.815 258.026 32.415 258.706 31.755C258.946 32.395 259.526 32.775 260.366 32.775C260.606 32.775 260.866 32.735 261.006 32.675V31.675ZM256.566 31.555C255.406 31.555 255.006 30.795 255.006 30.055C255.006 28.955 255.886 28.475 257.326 28.475C258.106 28.475 258.566 28.615 258.566 28.615V30.715C258.026 31.275 257.246 31.555 256.566 31.555ZM262.189 24.855H263.349V29.855C263.349 31.635 264.469 32.815 266.229 32.815C266.589 32.815 266.969 32.755 267.289 32.615V31.315C267.069 31.455 266.769 31.515 266.489 31.515C265.529 31.515 264.889 30.835 264.889 29.855V24.855H267.289V23.655H264.889V21.655H263.349V23.655H262.189V24.855ZM269.437 32.655H270.937V23.655H269.437V32.655ZM269.197 20.955C269.197 21.515 269.637 21.955 270.197 21.955C270.757 21.955 271.197 21.515 271.197 20.955C271.197 20.395 270.757 19.955 270.197 19.955C269.637 19.955 269.197 20.395 269.197 20.955ZM273.832 23.655V32.655H275.332V25.755C275.872 25.195 276.672 24.855 277.612 24.855C278.952 24.855 279.852 25.815 279.852 27.215V32.655H281.352V27.215C281.352 25.015 280.012 23.515 277.972 23.515C276.932 23.515 276.032 23.835 275.332 24.415V23.655H273.832ZM283.222 35.015C283.222 36.655 284.802 37.815 287.322 37.815C289.962 37.815 291.922 36.575 291.922 34.775C291.922 33.115 290.262 32.015 287.682 32.015C286.382 32.015 285.582 31.595 285.582 31.015C285.582 30.435 286.202 30.015 287.342 30.015C289.482 30.015 290.922 28.695 290.922 26.755C290.922 26.115 290.762 25.555 290.482 25.075C290.762 24.875 291.162 24.715 291.582 24.715C291.742 24.715 291.862 24.735 291.982 24.755V23.555C291.802 23.535 291.642 23.515 291.462 23.515C290.822 23.515 290.222 23.795 289.782 24.275C289.162 23.795 288.342 23.515 287.382 23.515C285.282 23.515 283.822 24.815 283.822 26.795C283.822 27.995 284.362 29.015 285.382 29.535C284.542 29.855 284.122 30.415 284.122 31.055C284.122 31.695 284.502 32.215 285.282 32.555C284.042 32.975 283.222 33.835 283.222 35.015ZM284.782 35.015C284.782 33.935 285.902 33.195 287.682 33.195C289.282 33.195 290.382 33.835 290.382 34.795C290.382 35.875 289.022 36.635 287.322 36.635C285.722 36.635 284.782 35.975 284.782 35.015ZM285.322 26.755C285.322 25.555 286.182 24.715 287.402 24.715C288.622 24.715 289.462 25.555 289.462 26.755C289.462 27.975 288.622 28.815 287.402 28.815C286.182 28.815 285.322 27.975 285.322 26.755ZM299.734 28.155C299.734 26.195 301.014 24.855 302.874 24.855C303.854 24.855 304.654 25.215 305.194 25.795L306.134 24.875C305.314 24.015 304.174 23.515 302.794 23.515C300.054 23.515 298.194 25.395 298.194 28.155C298.194 30.935 300.054 32.815 302.794 32.815C304.174 32.815 305.314 32.315 306.134 31.475L305.194 30.535C304.654 31.115 303.854 31.455 302.874 31.455C301.014 31.455 299.734 30.115 299.734 28.155ZM307.608 28.155C307.608 30.935 309.468 32.815 312.208 32.815C314.948 32.815 316.828 30.935 316.828 28.155C316.828 25.395 314.948 23.515 312.208 23.515C309.468 23.515 307.608 25.395 307.608 28.155ZM309.148 28.155C309.148 26.195 310.388 24.855 312.208 24.855C314.008 24.855 315.268 26.195 315.268 28.155C315.268 30.115 314.008 31.455 312.208 31.455C310.388 31.455 309.148 30.115 309.148 28.155ZM319.144 23.655V32.655H320.644V25.755C321.184 25.195 321.984 24.855 322.924 24.855C324.264 24.855 325.164 25.815 325.164 27.215V32.655H326.664V27.215C326.664 25.015 325.324 23.515 323.284 23.515C322.244 23.515 321.344 23.835 320.644 24.415V23.655H319.144ZM328.537 24.855H329.697V29.855C329.697 31.635 330.817 32.815 332.577 32.815C332.937 32.815 333.317 32.755 333.637 32.615V31.315C333.417 31.455 333.117 31.515 332.837 31.515C331.877 31.515 331.237 30.835 331.237 29.855V24.855H333.637V23.655H331.237V21.655H329.697V23.655H328.537V24.855ZM343.586 28.575C343.586 25.475 342.206 23.515 339.526 23.515C336.886 23.515 335.186 25.395 335.186 28.115C335.186 30.955 337.066 32.815 339.826 32.815C341.246 32.815 342.386 32.315 343.206 31.475L342.306 30.535C341.746 31.115 340.926 31.455 339.926 31.455C338.086 31.455 336.906 30.315 336.766 28.575H343.586ZM339.526 24.835C341.006 24.835 341.906 25.855 342.086 27.475H336.766C336.946 25.855 338.026 24.835 339.526 24.835ZM345.882 23.655V32.655H347.382V25.755C347.922 25.195 348.722 24.855 349.662 24.855C351.002 24.855 351.902 25.815 351.902 27.215V32.655H353.402V27.215C353.402 25.015 352.062 23.515 350.022 23.515C348.982 23.515 348.082 23.835 347.382 24.415V23.655H345.882ZM355.275 24.855H356.435V29.855C356.435 31.635 357.555 32.815 359.315 32.815C359.675 32.815 360.055 32.755 360.375 32.615V31.315C360.155 31.455 359.855 31.515 359.575 31.515C358.615 31.515 357.975 30.835 357.975 29.855V24.855H360.375V23.655H357.975V21.655H356.435V23.655H355.275V24.855ZM206.351 52.655H207.851V43.655H206.351V52.655ZM206.111 40.955C206.111 41.515 206.551 41.955 207.111 41.955C207.671 41.955 208.111 41.515 208.111 40.955C208.111 40.395 207.671 39.955 207.111 39.955C206.551 39.955 206.111 40.395 206.111 40.955ZM210.746 43.655V52.655H212.246V45.755C212.786 45.195 213.586 44.855 214.526 44.855C215.866 44.855 216.766 45.815 216.766 47.215V52.655H218.266V47.215C218.266 45.015 216.926 43.515 214.886 43.515C213.846 43.515 212.946 43.835 212.246 44.415V43.655H210.746ZM220.139 44.855H221.299V49.855C221.299 51.635 222.419 52.815 224.179 52.815C224.539 52.815 224.919 52.755 225.239 52.615V51.315C225.019 51.455 224.719 51.515 224.439 51.515C223.479 51.515 222.839 50.835 222.839 49.855V44.855H225.239V43.655H222.839V41.655H221.299V43.655H220.139V44.855ZM226.768 48.155C226.768 50.935 228.628 52.815 231.368 52.815C234.108 52.815 235.988 50.935 235.988 48.155C235.988 45.395 234.108 43.515 231.368 43.515C228.628 43.515 226.768 45.395 226.768 48.155ZM228.308 48.155C228.308 46.195 229.548 44.855 231.368 44.855C233.168 44.855 234.428 46.195 234.428 48.155C234.428 50.115 233.168 51.455 231.368 51.455C229.548 51.455 228.308 50.115 228.308 48.155ZM249.834 51.675C249.214 51.675 248.894 51.415 248.894 50.895V46.355C248.894 44.815 247.854 43.515 245.634 43.515C244.454 43.515 243.474 43.895 242.674 44.695L243.454 45.475C243.954 44.975 244.794 44.755 245.514 44.755C246.894 44.755 247.394 45.575 247.394 46.355V47.555C247.394 47.555 246.894 47.415 246.034 47.415C243.854 47.415 242.334 48.355 242.334 50.215C242.334 51.575 243.174 52.815 244.954 52.815C245.954 52.815 246.854 52.415 247.534 51.755C247.774 52.395 248.354 52.775 249.194 52.775C249.434 52.775 249.694 52.735 249.834 52.675V51.675ZM245.394 51.555C244.234 51.555 243.834 50.795 243.834 50.055C243.834 48.955 244.714 48.475 246.154 48.475C246.934 48.475 247.394 48.615 247.394 48.615V50.715C246.854 51.275 246.074 51.555 245.394 51.555ZM259.446 51.655C258.606 51.655 258.086 51.255 258.086 50.395V37.655H256.586V50.435C256.586 51.895 257.406 52.755 258.706 52.755C258.946 52.755 259.306 52.715 259.446 52.655V51.655ZM268.447 51.675C267.827 51.675 267.507 51.415 267.507 50.895V46.355C267.507 44.815 266.467 43.515 264.247 43.515C263.067 43.515 262.087 43.895 261.287 44.695L262.067 45.475C262.567 44.975 263.407 44.755 264.127 44.755C265.507 44.755 266.007 45.575 266.007 46.355V47.555C266.007 47.555 265.507 47.415 264.647 47.415C262.467 47.415 260.947 48.355 260.947 50.215C260.947 51.575 261.787 52.815 263.567 52.815C264.567 52.815 265.467 52.415 266.147 51.755C266.387 52.395 266.967 52.775 267.807 52.775C268.047 52.775 268.307 52.735 268.447 52.675V51.675ZM264.007 51.555C262.847 51.555 262.447 50.795 262.447 50.055C262.447 48.955 263.327 48.475 264.767 48.475C265.547 48.475 266.007 48.615 266.007 48.615V50.715C265.467 51.275 264.687 51.555 264.007 51.555ZM274.529 43.535C273.609 43.535 272.749 43.995 272.089 44.755V43.655H270.589V52.655H272.089V46.075C272.629 45.315 273.489 44.835 274.449 44.835C274.689 44.835 274.929 44.855 275.149 44.895V43.575C274.949 43.555 274.749 43.535 274.529 43.535ZM276.289 55.015C276.289 56.655 277.869 57.815 280.389 57.815C283.029 57.815 284.989 56.575 284.989 54.775C284.989 53.115 283.329 52.015 280.749 52.015C279.449 52.015 278.649 51.595 278.649 51.015C278.649 50.435 279.269 50.015 280.409 50.015C282.549 50.015 283.989 48.695 283.989 46.755C283.989 46.115 283.829 45.555 283.549 45.075C283.829 44.875 284.229 44.715 284.649 44.715C284.809 44.715 284.929 44.735 285.049 44.755V43.555C284.869 43.535 284.709 43.515 284.529 43.515C283.889 43.515 283.289 43.795 282.849 44.275C282.229 43.795 281.409 43.515 280.449 43.515C278.349 43.515 276.889 44.815 276.889 46.795C276.889 47.995 277.429 49.015 278.449 49.535C277.609 49.855 277.189 50.415 277.189 51.055C277.189 51.695 277.569 52.215 278.349 52.555C277.109 52.975 276.289 53.835 276.289 55.015ZM277.849 55.015C277.849 53.935 278.969 53.195 280.749 53.195C282.349 53.195 283.449 53.835 283.449 54.795C283.449 55.875 282.089 56.635 280.389 56.635C278.789 56.635 277.849 55.975 277.849 55.015ZM278.389 46.755C278.389 45.555 279.249 44.715 280.469 44.715C281.689 44.715 282.529 45.555 282.529 46.755C282.529 47.975 281.689 48.815 280.469 48.815C279.249 48.815 278.389 47.975 278.389 46.755ZM294.66 48.575C294.66 45.475 293.28 43.515 290.6 43.515C287.96 43.515 286.26 45.395 286.26 48.115C286.26 50.955 288.14 52.815 290.9 52.815C292.32 52.815 293.46 52.315 294.28 51.475L293.38 50.535C292.82 51.115 292 51.455 291 51.455C289.16 51.455 287.98 50.315 287.84 48.575H294.66ZM290.6 44.835C292.08 44.835 292.98 45.855 293.16 47.475H287.84C288.02 45.855 289.1 44.835 290.6 44.835ZM300.897 43.535C299.977 43.535 299.117 43.995 298.457 44.755V43.655H296.957V52.655H298.457V46.075C298.997 45.315 299.857 44.835 300.817 44.835C301.057 44.835 301.297 44.855 301.517 44.895V43.575C301.317 43.555 301.117 43.535 300.897 43.535ZM321.405 43.655H319.685L317.285 50.835L315.025 43.655H313.505L311.245 50.835L308.845 43.655H307.125L310.465 52.655H312.045L314.265 45.755L316.505 52.655H318.065L321.405 43.655ZM323.168 37.655V52.655H324.668V45.755C325.208 45.195 326.008 44.855 326.948 44.855C328.288 44.855 329.188 45.815 329.188 47.215V52.655H330.688V47.215C330.688 45.015 329.348 43.515 327.308 43.515C326.268 43.515 325.368 43.835 324.668 44.415V37.655H323.168ZM333.076 48.155C333.076 50.935 334.936 52.815 337.676 52.815C340.416 52.815 342.296 50.935 342.296 48.155C342.296 45.395 340.416 43.515 337.676 43.515C334.936 43.515 333.076 45.395 333.076 48.155ZM334.616 48.155C334.616 46.195 335.856 44.855 337.676 44.855C339.476 44.855 340.736 46.195 340.736 48.155C340.736 50.115 339.476 51.455 337.676 51.455C335.856 51.455 334.616 50.115 334.616 48.155ZM347.473 51.655C346.633 51.655 346.113 51.255 346.113 50.395V37.655H344.613V50.435C344.613 51.895 345.433 52.755 346.733 52.755C346.973 52.755 347.333 52.715 347.473 52.655V51.655ZM357.414 48.575C357.414 45.475 356.034 43.515 353.354 43.515C350.714 43.515 349.014 45.395 349.014 48.115C349.014 50.955 350.894 52.815 353.654 52.815C355.074 52.815 356.214 52.315 357.034 51.475L356.134 50.535C355.574 51.115 354.754 51.455 353.754 51.455C351.914 51.455 350.734 50.315 350.594 48.575H357.414ZM353.354 44.835C354.834 44.835 355.734 45.855 355.914 47.475H350.594C350.774 45.855 351.854 44.835 353.354 44.835Z" fill="black"/>
<path d="M245.451 80.7903C243.351 80.7903 241.611 84.9103 241.611 90.9303C241.611 96.9703 243.351 101.09 245.451 101.09V99.9303C244.271 99.9303 243.151 96.2703 243.151 90.9303C243.151 85.5903 244.271 81.9303 245.451 81.9303V80.7903ZM252.849 87.8703C252.169 87.1703 251.129 86.7903 250.089 86.7903C248.229 86.7903 247.369 88.0503 247.369 89.3503C247.369 90.8903 248.549 91.4503 249.809 91.9503C250.949 92.4303 251.589 92.7103 251.589 93.4303C251.589 94.0303 251.169 94.8303 249.989 94.8303C249.289 94.8303 248.469 94.5303 248.009 93.9903L247.129 94.8703C247.829 95.6303 248.929 96.0903 250.089 96.0903C252.109 96.0903 253.089 94.7103 253.089 93.3703C253.089 91.9103 251.909 91.3503 250.729 90.8503C249.669 90.4103 248.869 90.1103 248.869 89.3103C248.869 88.7503 249.249 88.0503 250.209 88.0503C250.809 88.0503 251.589 88.3303 251.969 88.7503L252.849 87.8703ZM263.232 86.9303H261.572L258.612 94.1303L255.672 86.9303H253.992L257.912 95.9303L255.412 100.93H257.072L263.232 86.9303ZM264.996 86.9303V95.9303H266.496V89.0303C267.036 88.4703 267.836 88.1303 268.776 88.1303C270.116 88.1303 271.016 89.0903 271.016 90.4903V95.9303H272.516V90.4903C272.516 88.2903 271.176 86.7903 269.136 86.7903C268.096 86.7903 267.196 87.1103 266.496 87.6903V86.9303H264.996ZM274.389 88.1303H275.549V93.1303C275.549 94.9103 276.669 96.0903 278.429 96.0903C278.789 96.0903 279.169 96.0303 279.489 95.8903V94.5903C279.269 94.7303 278.969 94.7903 278.689 94.7903C277.729 94.7903 277.089 94.1103 277.089 93.1303V88.1303H279.489V86.9303H277.089V84.9303H275.549V86.9303H274.389V88.1303ZM281.636 80.9303V95.9303H283.136V89.0303C283.676 88.4703 284.476 88.1303 285.416 88.1303C286.756 88.1303 287.656 89.0903 287.656 90.4903V95.9303H289.156V90.4903C289.156 88.2903 287.816 86.7903 285.776 86.7903C284.736 86.7903 283.836 87.1103 283.136 87.6903V80.9303H281.636ZM299.965 91.8503C299.965 88.7503 298.585 86.7903 295.905 86.7903C293.265 86.7903 291.565 88.6703 291.565 91.3903C291.565 94.2303 293.445 96.0903 296.205 96.0903C297.625 96.0903 298.765 95.5903 299.585 94.7503L298.685 93.8103C298.125 94.3903 297.305 94.7303 296.305 94.7303C294.465 94.7303 293.285 93.5903 293.145 91.8503H299.965ZM295.905 88.1103C297.385 88.1103 298.285 89.1303 298.465 90.7503H293.145C293.325 89.1303 294.405 88.1103 295.905 88.1103ZM307.263 87.8703C306.583 87.1703 305.543 86.7903 304.503 86.7903C302.643 86.7903 301.783 88.0503 301.783 89.3503C301.783 90.8903 302.963 91.4503 304.223 91.9503C305.363 92.4303 306.003 92.7103 306.003 93.4303C306.003 94.0303 305.583 94.8303 304.403 94.8303C303.703 94.8303 302.883 94.5303 302.423 93.9903L301.543 94.8703C302.243 95.6303 303.343 96.0903 304.503 96.0903C306.523 96.0903 307.503 94.7103 307.503 93.3703C307.503 91.9103 306.323 91.3503 305.143 90.8503C304.083 90.4103 303.283 90.1103 303.283 89.3103C303.283 88.7503 303.663 88.0503 304.623 88.0503C305.223 88.0503 306.003 88.3303 306.383 88.7503L307.263 87.8703ZM309.839 95.9303H311.339V86.9303H309.839V95.9303ZM309.599 84.2303C309.599 84.7903 310.039 85.2303 310.599 85.2303C311.159 85.2303 311.599 84.7903 311.599 84.2303C311.599 83.6703 311.159 83.2303 310.599 83.2303C310.039 83.2303 309.599 83.6703 309.599 84.2303ZM319.294 87.8703C318.614 87.1703 317.574 86.7903 316.534 86.7903C314.674 86.7903 313.814 88.0503 313.814 89.3503C313.814 90.8903 314.994 91.4503 316.254 91.9503C317.394 92.4303 318.034 92.7103 318.034 93.4303C318.034 94.0303 317.614 94.8303 316.434 94.8303C315.734 94.8303 314.914 94.5303 314.454 93.9903L313.574 94.8703C314.274 95.6303 315.374 96.0903 316.534 96.0903C318.554 96.0903 319.534 94.7103 319.534 93.3703C319.534 91.9103 318.354 91.3503 317.174 90.8503C316.114 90.4103 315.314 90.1103 315.314 89.3103C315.314 88.7503 315.694 88.0503 316.654 88.0503C317.254 88.0503 318.034 88.3303 318.414 88.7503L319.294 87.8703ZM321.331 81.9303C322.511 81.9303 323.631 85.5903 323.631 90.9303C323.631 96.2703 322.511 99.9303 321.331 99.9303V101.09C323.431 101.09 325.171 96.9703 325.171 90.9303C325.171 84.9103 323.431 80.7903 321.331 80.7903V81.9303Z" fill="black"/>
<path d="M68.2753 242.915L74.0488 232.915H62.5018L68.2753 242.915ZM67.2753 155.595V233.915H69.2753V155.595H67.2753Z" fill="#626262"/>
<path d="M84.9017 177.66C88.0217 177.66 89.7617 175.78 89.7617 173.02C89.7617 170.24 87.9617 168.36 85.3217 168.36C84.3617 168.36 83.5017 168.62 82.8217 169.1V162.5H81.3217V176.4C82.2817 177.36 83.6817 177.66 84.9017 177.66ZM88.2217 173.04C88.2217 174.96 87.0617 176.3 85.0217 176.3C84.2617 176.3 83.4217 176.12 82.8217 175.66V170.66C83.3817 170.02 84.2017 169.7 85.1017 169.7C86.9617 169.7 88.2217 171.04 88.2217 173.04ZM96.0429 168.38C95.1229 168.38 94.2629 168.84 93.6029 169.6V168.5H92.1029V177.5H93.6029V170.92C94.1429 170.16 95.0029 169.68 95.9629 169.68C96.2029 169.68 96.4429 169.7 96.6629 169.74V168.42C96.4629 168.4 96.2629 168.38 96.0429 168.38ZM106.271 173.42C106.271 170.32 104.891 168.36 102.211 168.36C99.5715 168.36 97.8715 170.24 97.8715 172.96C97.8715 175.8 99.7515 177.66 102.511 177.66C103.931 177.66 105.071 177.16 105.891 176.32L104.991 175.38C104.431 175.96 103.611 176.3 102.611 176.3C100.771 176.3 99.5915 175.16 99.4515 173.42H106.271ZM102.211 169.68C103.691 169.68 104.591 170.7 104.771 172.32H99.4515C99.6315 170.7 100.711 169.68 102.211 169.68ZM115.488 176.52C114.868 176.52 114.548 176.26 114.548 175.74V171.2C114.548 169.66 113.508 168.36 111.288 168.36C110.108 168.36 109.128 168.74 108.328 169.54L109.108 170.32C109.608 169.82 110.448 169.6 111.168 169.6C112.548 169.6 113.048 170.42 113.048 171.2V172.4C113.048 172.4 112.548 172.26 111.688 172.26C109.508 172.26 107.988 173.2 107.988 175.06C107.988 176.42 108.828 177.66 110.608 177.66C111.608 177.66 112.508 177.26 113.188 176.6C113.428 177.24 114.008 177.62 114.848 177.62C115.088 177.62 115.348 177.58 115.488 177.52V176.52ZM111.048 176.4C109.888 176.4 109.488 175.64 109.488 174.9C109.488 173.8 110.368 173.32 111.808 173.32C112.588 173.32 113.048 173.46 113.048 173.46V175.56C112.508 176.12 111.728 176.4 111.048 176.4ZM119.13 177.5V172.88L123.13 177.5H124.91L120.73 172.72L124.49 168.5H122.69L119.13 172.56V162.5H117.63V177.5H119.13ZM126.81 177.5H128.31V168.5H126.81V177.5ZM126.57 165.8C126.57 166.36 127.01 166.8 127.57 166.8C128.13 166.8 128.57 166.36 128.57 165.8C128.57 165.24 128.13 164.8 127.57 164.8C127.01 164.8 126.57 165.24 126.57 165.8ZM131.204 168.5V177.5H132.704V170.6C133.244 170.04 134.044 169.7 134.984 169.7C136.324 169.7 137.224 170.66 137.224 172.06V177.5H138.724V172.06C138.724 169.86 137.384 168.36 135.344 168.36C134.304 168.36 133.404 168.68 132.704 169.26V168.5H131.204ZM140.595 179.86C140.595 181.5 142.175 182.66 144.695 182.66C147.335 182.66 149.295 181.42 149.295 179.62C149.295 177.96 147.635 176.86 145.055 176.86C143.755 176.86 142.955 176.44 142.955 175.86C142.955 175.28 143.575 174.86 144.715 174.86C146.855 174.86 148.295 173.54 148.295 171.6C148.295 170.96 148.135 170.4 147.855 169.92C148.135 169.72 148.535 169.56 148.955 169.56C149.115 169.56 149.235 169.58 149.355 169.6V168.4C149.175 168.38 149.015 168.36 148.835 168.36C148.195 168.36 147.595 168.64 147.155 169.12C146.535 168.64 145.715 168.36 144.755 168.36C142.655 168.36 141.195 169.66 141.195 171.64C141.195 172.84 141.735 173.86 142.755 174.38C141.915 174.7 141.495 175.26 141.495 175.9C141.495 176.54 141.875 177.06 142.655 177.4C141.415 177.82 140.595 178.68 140.595 179.86ZM142.155 179.86C142.155 178.78 143.275 178.04 145.055 178.04C146.655 178.04 147.755 178.68 147.755 179.64C147.755 180.72 146.395 181.48 144.695 181.48C143.095 181.48 142.155 180.82 142.155 179.86ZM142.695 171.6C142.695 170.4 143.555 169.56 144.775 169.56C145.995 169.56 146.835 170.4 146.835 171.6C146.835 172.82 145.995 173.66 144.775 173.66C143.555 173.66 142.695 172.82 142.695 171.6ZM156.107 177.5H157.607V168.5H156.107V177.5ZM155.867 165.8C155.867 166.36 156.307 166.8 156.867 166.8C157.427 166.8 157.867 166.36 157.867 165.8C157.867 165.24 157.427 164.8 156.867 164.8C156.307 164.8 155.867 165.24 155.867 165.8ZM159.601 169.7H160.761V174.7C160.761 176.48 161.881 177.66 163.641 177.66C164.001 177.66 164.381 177.6 164.701 177.46V176.16C164.481 176.3 164.181 176.36 163.901 176.36C162.941 176.36 162.301 175.68 162.301 174.7V169.7H164.701V168.5H162.301V166.5H160.761V168.5H159.601V169.7ZM81.3217 197.5H82.8217V188.5H81.3217V197.5ZM81.0817 185.8C81.0817 186.36 81.5217 186.8 82.0817 186.8C82.6417 186.8 83.0817 186.36 83.0817 185.8C83.0817 185.24 82.6417 184.8 82.0817 184.8C81.5217 184.8 81.0817 185.24 81.0817 185.8ZM85.7162 188.5V197.5H87.2162V190.6C87.7562 190.04 88.5562 189.7 89.4962 189.7C90.8362 189.7 91.7362 190.66 91.7362 192.06V197.5H93.2362V192.06C93.2362 189.86 91.8962 188.36 89.8562 188.36C88.8162 188.36 87.9162 188.68 87.2162 189.26V188.5H85.7162ZM95.1092 189.7H96.2692V194.7C96.2692 196.48 97.3892 197.66 99.1492 197.66C99.5092 197.66 99.8892 197.6 100.209 197.46V196.16C99.9892 196.3 99.6892 196.36 99.4092 196.36C98.4492 196.36 97.8092 195.68 97.8092 194.7V189.7H100.209V188.5H97.8092V186.5H96.2692V188.5H95.1092V189.7ZM101.738 193C101.738 195.78 103.598 197.66 106.338 197.66C109.078 197.66 110.958 195.78 110.958 193C110.958 190.24 109.078 188.36 106.338 188.36C103.598 188.36 101.738 190.24 101.738 193ZM103.278 193C103.278 191.04 104.518 189.7 106.338 189.7C108.138 189.7 109.398 191.04 109.398 193C109.398 194.96 108.138 196.3 106.338 196.3C104.518 196.3 103.278 194.96 103.278 193ZM122.944 189.44C122.264 188.74 121.224 188.36 120.184 188.36C118.324 188.36 117.464 189.62 117.464 190.92C117.464 192.46 118.644 193.02 119.904 193.52C121.044 194 121.684 194.28 121.684 195C121.684 195.6 121.264 196.4 120.084 196.4C119.384 196.4 118.564 196.1 118.104 195.56L117.224 196.44C117.924 197.2 119.024 197.66 120.184 197.66C122.204 197.66 123.184 196.28 123.184 194.94C123.184 193.48 122.004 192.92 120.824 192.42C119.764 191.98 118.964 191.68 118.964 190.88C118.964 190.32 119.344 189.62 120.304 189.62C120.904 189.62 121.684 189.9 122.064 190.32L122.944 189.44ZM136.341 197.5H137.841V191.46C137.841 189.62 136.761 188.36 135.061 188.36C133.801 188.36 132.721 188.8 131.961 189.6C131.481 188.82 130.681 188.36 129.661 188.36C128.621 188.36 127.721 188.68 127.021 189.26V188.5H125.521V197.5H127.021V190.6C127.561 190.04 128.361 189.7 129.301 189.7C130.281 189.7 130.941 190.42 130.941 191.46V197.5H132.441V191.46C132.441 191.16 132.401 190.86 132.341 190.58C132.921 190.02 133.761 189.7 134.721 189.7C135.681 189.7 136.341 190.42 136.341 191.46V197.5ZM147.656 196.52C147.036 196.52 146.716 196.26 146.716 195.74V191.2C146.716 189.66 145.676 188.36 143.456 188.36C142.276 188.36 141.296 188.74 140.496 189.54L141.276 190.32C141.776 189.82 142.616 189.6 143.336 189.6C144.716 189.6 145.216 190.42 145.216 191.2V192.4C145.216 192.4 144.716 192.26 143.856 192.26C141.676 192.26 140.156 193.2 140.156 195.06C140.156 196.42 140.996 197.66 142.776 197.66C143.776 197.66 144.676 197.26 145.356 196.6C145.596 197.24 146.176 197.62 147.016 197.62C147.256 197.62 147.516 197.58 147.656 197.52V196.52ZM143.216 196.4C142.056 196.4 141.656 195.64 141.656 194.9C141.656 193.8 142.536 193.32 143.976 193.32C144.756 193.32 145.216 193.46 145.216 193.46V195.56C144.676 196.12 143.896 196.4 143.216 196.4ZM152.658 196.5C151.818 196.5 151.298 196.1 151.298 195.24V182.5H149.798V195.28C149.798 196.74 150.618 197.6 151.918 197.6C152.158 197.6 152.518 197.56 152.658 197.5V196.5ZM157.6 196.5C156.76 196.5 156.24 196.1 156.24 195.24V182.5H154.74V195.28C154.74 196.74 155.56 197.6 156.86 197.6C157.1 197.6 157.46 197.56 157.6 197.5V196.5ZM167.541 193.42C167.541 190.32 166.161 188.36 163.481 188.36C160.841 188.36 159.141 190.24 159.141 192.96C159.141 195.8 161.021 197.66 163.781 197.66C165.201 197.66 166.341 197.16 167.161 196.32L166.261 195.38C165.701 195.96 164.881 196.3 163.881 196.3C162.041 196.3 160.861 195.16 160.721 193.42H167.541ZM163.481 189.68C164.961 189.68 165.861 190.7 166.041 192.32H160.721C160.901 190.7 161.981 189.68 163.481 189.68ZM173.777 188.38C172.857 188.38 171.997 188.84 171.337 189.6V188.5H169.837V197.5H171.337V190.92C171.877 190.16 172.737 189.68 173.697 189.68C173.937 189.68 174.177 189.7 174.397 189.74V188.42C174.197 188.4 173.997 188.38 173.777 188.38ZM81.3217 208.5V222.5H82.8217V217.02C83.5017 217.44 84.3217 217.66 85.2417 217.66C87.9617 217.66 89.8017 215.78 89.8017 213C89.8017 210.24 88.0617 208.36 85.4817 208.36C84.4417 208.36 83.5217 208.68 82.8217 209.26V208.5H81.3217ZM88.2417 213C88.2417 214.96 86.9617 216.3 85.1017 216.3C84.1617 216.3 83.3617 216 82.8217 215.46V210.6C83.3617 210.04 84.1617 209.7 85.1017 209.7C86.9617 209.7 88.2417 211.04 88.2417 213ZM99.062 216.52C98.442 216.52 98.122 216.26 98.122 215.74V211.2C98.122 209.66 97.082 208.36 94.862 208.36C93.682 208.36 92.702 208.74 91.902 209.54L92.682 210.32C93.182 209.82 94.022 209.6 94.742 209.6C96.122 209.6 96.622 210.42 96.622 211.2V212.4C96.622 212.4 96.122 212.26 95.262 212.26C93.082 212.26 91.562 213.2 91.562 215.06C91.562 216.42 92.402 217.66 94.182 217.66C95.182 217.66 96.082 217.26 96.762 216.6C97.002 217.24 97.582 217.62 98.422 217.62C98.662 217.62 98.922 217.58 99.062 217.52V216.52ZM94.622 216.4C93.462 216.4 93.062 215.64 93.062 214.9C93.062 213.8 93.942 213.32 95.382 213.32C96.162 213.32 96.622 213.46 96.622 213.46V215.56C96.082 216.12 95.302 216.4 94.622 216.4ZM105.144 208.38C104.224 208.38 103.364 208.84 102.704 209.6V208.5H101.204V217.5H102.704V210.92C103.244 210.16 104.104 209.68 105.064 209.68C105.304 209.68 105.544 209.7 105.764 209.74V208.42C105.564 208.4 105.364 208.38 105.144 208.38ZM107.004 209.7H108.164V214.7C108.164 216.48 109.284 217.66 111.044 217.66C111.404 217.66 111.784 217.6 112.104 217.46V216.16C111.884 216.3 111.584 216.36 111.304 216.36C110.344 216.36 109.704 215.68 109.704 214.7V209.7H112.104V208.5H109.704V206.5H108.164V208.5H107.004V209.7ZM119.311 209.44C118.631 208.74 117.591 208.36 116.551 208.36C114.691 208.36 113.831 209.62 113.831 210.92C113.831 212.46 115.011 213.02 116.271 213.52C117.411 214 118.051 214.28 118.051 215C118.051 215.6 117.631 216.4 116.451 216.4C115.751 216.4 114.931 216.1 114.471 215.56L113.591 216.44C114.291 217.2 115.391 217.66 116.551 217.66C118.571 217.66 119.551 216.28 119.551 214.94C119.551 213.48 118.371 212.92 117.191 212.42C116.131 211.98 115.331 211.68 115.331 210.88C115.331 210.32 115.711 209.62 116.671 209.62C117.271 209.62 118.051 209.9 118.431 210.32L119.311 209.44ZM130.097 202.36C127.997 202.36 126.257 206.48 126.257 212.5C126.257 218.54 127.997 222.66 130.097 222.66V221.5C128.917 221.5 127.797 217.84 127.797 212.5C127.797 207.16 128.917 203.5 130.097 203.5V202.36ZM139.355 216.52C138.735 216.52 138.415 216.26 138.415 215.74V211.2C138.415 209.66 137.375 208.36 135.155 208.36C133.975 208.36 132.995 208.74 132.195 209.54L132.975 210.32C133.475 209.82 134.315 209.6 135.035 209.6C136.415 209.6 136.915 210.42 136.915 211.2V212.4C136.915 212.4 136.415 212.26 135.555 212.26C133.375 212.26 131.855 213.2 131.855 215.06C131.855 216.42 132.695 217.66 134.475 217.66C135.475 217.66 136.375 217.26 137.055 216.6C137.295 217.24 137.875 217.62 138.715 217.62C138.955 217.62 139.215 217.58 139.355 217.52V216.52ZM134.915 216.4C133.755 216.4 133.355 215.64 133.355 214.9C133.355 213.8 134.235 213.32 135.675 213.32C136.455 213.32 136.915 213.46 136.915 213.46V215.56C136.375 216.12 135.595 216.4 134.915 216.4ZM141.497 208.5V217.5H142.997V210.6C143.537 210.04 144.337 209.7 145.277 209.7C146.617 209.7 147.517 210.66 147.517 212.06V217.5H149.017V212.06C149.017 209.86 147.677 208.36 145.637 208.36C144.597 208.36 143.697 208.68 142.997 209.26V208.5H141.497ZM158.808 216.52C158.188 216.52 157.868 216.26 157.868 215.74V211.2C157.868 209.66 156.828 208.36 154.608 208.36C153.428 208.36 152.448 208.74 151.648 209.54L152.428 210.32C152.928 209.82 153.768 209.6 154.488 209.6C155.868 209.6 156.368 210.42 156.368 211.2V212.4C156.368 212.4 155.868 212.26 155.008 212.26C152.828 212.26 151.308 213.2 151.308 215.06C151.308 216.42 152.148 217.66 153.928 217.66C154.928 217.66 155.828 217.26 156.508 216.6C156.748 217.24 157.328 217.62 158.168 217.62C158.408 217.62 158.668 217.58 158.808 217.52V216.52ZM154.368 216.4C153.208 216.4 152.808 215.64 152.808 214.9C152.808 213.8 153.688 213.32 155.128 213.32C155.908 213.32 156.368 213.46 156.368 213.46V215.56C155.828 216.12 155.048 216.4 154.368 216.4ZM163.811 216.5C162.971 216.5 162.451 216.1 162.451 215.24V202.5H160.951V215.28C160.951 216.74 161.771 217.6 163.071 217.6C163.311 217.6 163.671 217.56 163.811 217.5V216.5ZM173.992 208.5H172.332L169.372 215.7L166.432 208.5H164.752L168.672 217.5L166.172 222.5H167.832L173.992 208.5ZM180.757 209.44C180.077 208.74 179.037 208.36 177.997 208.36C176.137 208.36 175.277 209.62 175.277 210.92C175.277 212.46 176.457 213.02 177.717 213.52C178.857 214 179.497 214.28 179.497 215C179.497 215.6 179.077 216.4 177.897 216.4C177.197 216.4 176.377 216.1 175.917 215.56L175.037 216.44C175.737 217.2 176.837 217.66 177.997 217.66C180.017 217.66 180.997 216.28 180.997 214.94C180.997 213.48 179.817 212.92 178.637 212.42C177.577 211.98 176.777 211.68 176.777 210.88C176.777 210.32 177.157 209.62 178.117 209.62C178.717 209.62 179.497 209.9 179.877 210.32L180.757 209.44ZM183.333 217.5H184.833V208.5H183.333V217.5ZM183.093 205.8C183.093 206.36 183.533 206.8 184.093 206.8C184.653 206.8 185.093 206.36 185.093 205.8C185.093 205.24 184.653 204.8 184.093 204.8C183.533 204.8 183.093 205.24 183.093 205.8ZM192.788 209.44C192.108 208.74 191.068 208.36 190.028 208.36C188.168 208.36 187.308 209.62 187.308 210.92C187.308 212.46 188.488 213.02 189.748 213.52C190.888 214 191.528 214.28 191.528 215C191.528 215.6 191.108 216.4 189.928 216.4C189.228 216.4 188.408 216.1 187.948 215.56L187.068 216.44C187.768 217.2 188.868 217.66 190.028 217.66C192.048 217.66 193.028 216.28 193.028 214.94C193.028 213.48 191.848 212.92 190.668 212.42C189.608 211.98 188.808 211.68 188.808 210.88C188.808 210.32 189.188 209.62 190.148 209.62C190.748 209.62 191.528 209.9 191.908 210.32L192.788 209.44ZM194.825 203.5C196.005 203.5 197.125 207.16 197.125 212.5C197.125 217.84 196.005 221.5 194.825 221.5V222.66C196.925 222.66 198.665 218.54 198.665 212.5C198.665 206.48 196.925 202.36 194.825 202.36V203.5Z" fill="black"/>
<path d="M15.6553 409.514C14.7353 409.514 13.8753 409.974 13.2153 410.734V409.634H11.7153V418.634H13.2153V412.054C13.7553 411.294 14.6153 410.814 15.5753 410.814C15.8153 410.814 16.0553 410.834 16.2753 410.874V409.554C16.0753 409.534 15.8753 409.514 15.6553 409.514ZM25.8839 414.554C25.8839 411.454 24.5039 409.494 21.8239 409.494C19.1839 409.494 17.4839 411.374 17.4839 414.094C17.4839 416.934 19.3639 418.794 22.1239 418.794C23.5439 418.794 24.6839 418.294 25.5039 417.454L24.6039 416.514C24.0439 417.094 23.2239 417.434 22.2239 417.434C20.3839 417.434 19.2039 416.294 19.0639 414.554H25.8839ZM21.8239 410.814C23.3039 410.814 24.2039 411.834 24.3839 413.454H19.0639C19.2439 411.834 20.3239 410.814 21.8239 410.814ZM29.1801 414.134C29.1801 412.174 30.4601 410.834 32.3201 410.834C33.3001 410.834 34.1001 411.194 34.6401 411.774L35.5801 410.854C34.7601 409.994 33.6201 409.494 32.2401 409.494C29.5001 409.494 27.6401 411.374 27.6401 414.134C27.6401 416.914 29.5001 418.794 32.2401 418.794C33.6201 418.794 34.7601 418.294 35.5801 417.454L34.6401 416.514C34.1001 417.094 33.3001 417.434 32.3201 417.434C30.4601 417.434 29.1801 416.094 29.1801 414.134ZM37.0537 414.134C37.0537 416.914 38.9137 418.794 41.6537 418.794C44.3937 418.794 46.2737 416.914 46.2737 414.134C46.2737 411.374 44.3937 409.494 41.6537 409.494C38.9137 409.494 37.0537 411.374 37.0537 414.134ZM38.5937 414.134C38.5937 412.174 39.8337 410.834 41.6537 410.834C43.4537 410.834 44.7137 412.174 44.7137 414.134C44.7137 416.094 43.4537 417.434 41.6537 417.434C39.8337 417.434 38.5937 416.094 38.5937 414.134ZM47.5903 420.994C47.5903 422.634 49.1703 423.794 51.6903 423.794C54.3303 423.794 56.2903 422.554 56.2903 420.754C56.2903 419.094 54.6303 417.994 52.0503 417.994C50.7503 417.994 49.9503 417.574 49.9503 416.994C49.9503 416.414 50.5703 415.994 51.7103 415.994C53.8503 415.994 55.2903 414.674 55.2903 412.734C55.2903 412.094 55.1303 411.534 54.8503 411.054C55.1303 410.854 55.5303 410.694 55.9503 410.694C56.1103 410.694 56.2303 410.714 56.3503 410.734V409.534C56.1703 409.514 56.0103 409.494 55.8303 409.494C55.1903 409.494 54.5903 409.774 54.1503 410.254C53.5303 409.774 52.7103 409.494 51.7503 409.494C49.6503 409.494 48.1903 410.794 48.1903 412.774C48.1903 413.974 48.7303 414.994 49.7503 415.514C48.9103 415.834 48.4903 416.394 48.4903 417.034C48.4903 417.674 48.8703 418.194 49.6503 418.534C48.4103 418.954 47.5903 419.814 47.5903 420.994ZM49.1503 420.994C49.1503 419.914 50.2703 419.174 52.0503 419.174C53.6503 419.174 54.7503 419.814 54.7503 420.774C54.7503 421.854 53.3903 422.614 51.6903 422.614C50.0903 422.614 49.1503 421.954 49.1503 420.994ZM49.6903 412.734C49.6903 411.534 50.5503 410.694 51.7703 410.694C52.9903 410.694 53.8303 411.534 53.8303 412.734C53.8303 413.954 52.9903 414.794 51.7703 414.794C50.5503 414.794 49.6903 413.954 49.6903 412.734ZM58.4926 409.634V418.634H59.9926V411.734C60.5326 411.174 61.3326 410.834 62.2726 410.834C63.6126 410.834 64.5126 411.794 64.5126 413.194V418.634H66.0126V413.194C66.0126 410.994 64.6726 409.494 62.6326 409.494C61.5926 409.494 60.6926 409.814 59.9926 410.394V409.634H58.4926ZM68.8832 418.634H70.3832V409.634H68.8832V418.634ZM68.6432 406.934C68.6432 407.494 69.0832 407.934 69.6432 407.934C70.2032 407.934 70.6432 407.494 70.6432 406.934C70.6432 406.374 70.2032 405.934 69.6432 405.934C69.0832 405.934 68.6432 406.374 68.6432 406.934ZM72.8578 410.834H78.0178L72.7778 418.074V418.634H80.1978V417.434H74.9578L80.1978 410.194V409.634H72.8578V410.834ZM82.5746 418.634H84.0746V409.634H82.5746V418.634ZM82.3346 406.934C82.3346 407.494 82.7746 407.934 83.3346 407.934C83.8946 407.934 84.3346 407.494 84.3346 406.934C84.3346 406.374 83.8946 405.934 83.3346 405.934C82.7746 405.934 82.3346 406.374 82.3346 406.934ZM86.9692 409.634V418.634H88.4692V411.734C89.0092 411.174 89.8092 410.834 90.7492 410.834C92.0892 410.834 92.9892 411.794 92.9892 413.194V418.634H94.4892V413.194C94.4892 410.994 93.1492 409.494 91.1092 409.494C90.0692 409.494 89.1692 409.814 88.4692 410.394V409.634H86.9692ZM96.3598 420.994C96.3598 422.634 97.9398 423.794 100.46 423.794C103.1 423.794 105.06 422.554 105.06 420.754C105.06 419.094 103.4 417.994 100.82 417.994C99.5198 417.994 98.7198 417.574 98.7198 416.994C98.7198 416.414 99.3398 415.994 100.48 415.994C102.62 415.994 104.06 414.674 104.06 412.734C104.06 412.094 103.9 411.534 103.62 411.054C103.9 410.854 104.3 410.694 104.72 410.694C104.88 410.694 105 410.714 105.12 410.734V409.534C104.94 409.514 104.78 409.494 104.6 409.494C103.96 409.494 103.36 409.774 102.92 410.254C102.3 409.774 101.48 409.494 100.52 409.494C98.4198 409.494 96.9598 410.794 96.9598 412.774C96.9598 413.974 97.4998 414.994 98.5198 415.514C97.6798 415.834 97.2598 416.394 97.2598 417.034C97.2598 417.674 97.6398 418.194 98.4198 418.534C97.1798 418.954 96.3598 419.814 96.3598 420.994ZM97.9198 420.994C97.9198 419.914 99.0398 419.174 100.82 419.174C102.42 419.174 103.52 419.814 103.52 420.774C103.52 421.854 102.16 422.614 100.46 422.614C98.8598 422.614 97.9198 421.954 97.9198 420.994ZM98.4598 412.734C98.4598 411.534 99.3198 410.694 100.54 410.694C101.76 410.694 102.6 411.534 102.6 412.734C102.6 413.954 101.76 414.794 100.54 414.794C99.3198 414.794 98.4598 413.954 98.4598 412.734ZM19.5753 434.554C19.5753 431.454 18.1953 429.494 15.5153 429.494C12.8753 429.494 11.1753 431.374 11.1753 434.094C11.1753 436.934 13.0553 438.794 15.8153 438.794C17.2353 438.794 18.3753 438.294 19.1953 437.454L18.2953 436.514C17.7353 437.094 16.9153 437.434 15.9153 437.434C14.0753 437.434 12.8953 436.294 12.7553 434.554H19.5753ZM15.5153 430.814C16.9953 430.814 17.8953 431.834 18.0753 433.454H12.7553C12.9353 431.834 14.0153 430.814 15.5153 430.814ZM26.8729 430.574C26.1929 429.874 25.1529 429.494 24.1129 429.494C22.2529 429.494 21.3929 430.754 21.3929 432.054C21.3929 433.594 22.5729 434.154 23.8329 434.654C24.9729 435.134 25.6129 435.414 25.6129 436.134C25.6129 436.734 25.1929 437.534 24.0129 437.534C23.3129 437.534 22.4929 437.234 22.0329 436.694L21.1529 437.574C21.8529 438.334 22.9529 438.794 24.1129 438.794C26.1329 438.794 27.1129 437.414 27.1129 436.074C27.1129 434.614 25.9329 434.054 24.7529 433.554C23.6929 433.114 22.8929 432.814 22.8929 432.014C22.8929 431.454 23.2729 430.754 24.2329 430.754C24.8329 430.754 25.6129 431.034 25.9929 431.454L26.8729 430.574ZM34.5096 430.574C33.8296 429.874 32.7896 429.494 31.7496 429.494C29.8896 429.494 29.0296 430.754 29.0296 432.054C29.0296 433.594 30.2096 434.154 31.4696 434.654C32.6096 435.134 33.2496 435.414 33.2496 436.134C33.2496 436.734 32.8296 437.534 31.6496 437.534C30.9496 437.534 30.1296 437.234 29.6696 436.694L28.7896 437.574C29.4896 438.334 30.5896 438.794 31.7496 438.794C33.7696 438.794 34.7496 437.414 34.7496 436.074C34.7496 434.614 33.5696 434.054 32.3896 433.554C31.3296 433.114 30.5296 432.814 30.5296 432.014C30.5296 431.454 30.9096 430.754 31.8696 430.754C32.4696 430.754 33.2496 431.034 33.6296 431.454L34.5096 430.574ZM44.9464 434.554C44.9464 431.454 43.5664 429.494 40.8864 429.494C38.2464 429.494 36.5464 431.374 36.5464 434.094C36.5464 436.934 38.4264 438.794 41.1864 438.794C42.6064 438.794 43.7464 438.294 44.5664 437.454L43.6664 436.514C43.1064 437.094 42.2864 437.434 41.2864 437.434C39.4464 437.434 38.2664 436.294 38.1264 434.554H44.9464ZM40.8864 430.814C42.3664 430.814 43.2664 431.834 43.4464 433.454H38.1264C38.3064 431.834 39.3864 430.814 40.8864 430.814ZM47.2426 429.634V438.634H48.7426V431.734C49.2826 431.174 50.0826 430.834 51.0226 430.834C52.3626 430.834 53.2626 431.794 53.2626 433.194V438.634H54.7626V433.194C54.7626 430.994 53.4226 429.494 51.3826 429.494C50.3426 429.494 49.4426 429.814 48.7426 430.394V429.634H47.2426ZM56.6356 430.834H57.7956V435.834C57.7956 437.614 58.9156 438.794 60.6756 438.794C61.0356 438.794 61.4156 438.734 61.7356 438.594V437.294C61.5156 437.434 61.2156 437.494 60.9356 437.494C59.9756 437.494 59.3356 436.814 59.3356 435.834V430.834H61.7356V429.634H59.3356V427.634H57.7956V429.634H56.6356V430.834ZM63.8832 438.634H65.3832V429.634H63.8832V438.634ZM63.6432 426.934C63.6432 427.494 64.0832 427.934 64.6432 427.934C65.2032 427.934 65.6432 427.494 65.6432 426.934C65.6432 426.374 65.2032 425.934 64.6432 425.934C64.0832 425.934 63.6432 426.374 63.6432 426.934ZM75.1978 437.654C74.5778 437.654 74.2578 437.394 74.2578 436.874V432.334C74.2578 430.794 73.2178 429.494 70.9978 429.494C69.8178 429.494 68.8378 429.874 68.0378 430.674L68.8178 431.454C69.3178 430.954 70.1578 430.734 70.8778 430.734C72.2578 430.734 72.7578 431.554 72.7578 432.334V433.534C72.7578 433.534 72.2578 433.394 71.3978 433.394C69.2178 433.394 67.6978 434.334 67.6978 436.194C67.6978 437.554 68.5378 438.794 70.3178 438.794C71.3178 438.794 72.2178 438.394 72.8978 437.734C73.1378 438.374 73.7178 438.754 74.5578 438.754C74.7978 438.754 75.0578 438.714 75.1978 438.654V437.654ZM70.7578 437.534C69.5978 437.534 69.1978 436.774 69.1978 436.034C69.1978 434.934 70.0778 434.454 71.5178 434.454C72.2978 434.454 72.7578 434.594 72.7578 434.594V436.694C72.2178 437.254 71.4378 437.534 70.7578 437.534ZM80.2003 437.634C79.3603 437.634 78.8403 437.234 78.8403 436.374V423.634H77.3403V436.414C77.3403 437.874 78.1603 438.734 79.4603 438.734C79.7003 438.734 80.0603 438.694 80.2003 438.634V437.634ZM86.891 429.634V443.634H88.391V438.154C89.071 438.574 89.8911 438.794 90.811 438.794C93.5311 438.794 95.3711 436.914 95.3711 434.134C95.3711 431.374 93.631 429.494 91.051 429.494C90.0111 429.494 89.0911 429.814 88.391 430.394V429.634H86.891ZM93.8111 434.134C93.8111 436.094 92.531 437.434 90.671 437.434C89.7311 437.434 88.9311 437.134 88.391 436.594V431.734C88.9311 431.174 89.7311 430.834 90.671 430.834C92.531 430.834 93.8111 432.174 93.8111 434.134ZM104.631 437.654C104.011 437.654 103.691 437.394 103.691 436.874V432.334C103.691 430.794 102.651 429.494 100.431 429.494C99.2514 429.494 98.2714 429.874 97.4714 430.674L98.2514 431.454C98.7514 430.954 99.5914 430.734 100.311 430.734C101.691 430.734 102.191 431.554 102.191 432.334V433.534C102.191 433.534 101.691 433.394 100.831 433.394C98.6514 433.394 97.1314 434.334 97.1314 436.194C97.1314 437.554 97.9714 438.794 99.7514 438.794C100.751 438.794 101.651 438.394 102.331 437.734C102.571 438.374 103.151 438.754 103.991 438.754C104.231 438.754 104.491 438.714 104.631 438.654V437.654ZM100.191 437.534C99.0314 437.534 98.6314 436.774 98.6314 436.034C98.6314 434.934 99.5114 434.454 100.951 434.454C101.731 434.454 102.191 434.594 102.191 434.594V436.694C101.651 437.254 100.871 437.534 100.191 437.534ZM110.714 429.514C109.794 429.514 108.934 429.974 108.274 430.734V429.634H106.774V438.634H108.274V432.054C108.814 431.294 109.674 430.814 110.634 430.814C110.874 430.814 111.114 430.834 111.334 430.874V429.554C111.134 429.534 110.934 429.514 110.714 429.514ZM112.573 430.834H113.733V435.834C113.733 437.614 114.853 438.794 116.613 438.794C116.973 438.794 117.353 438.734 117.673 438.594V437.294C117.453 437.434 117.153 437.494 116.873 437.494C115.913 437.494 115.273 436.814 115.273 435.834V430.834H117.673V429.634H115.273V427.634H113.733V429.634H112.573V430.834ZM124.881 430.574C124.201 429.874 123.161 429.494 122.121 429.494C120.261 429.494 119.401 430.754 119.401 432.054C119.401 433.594 120.581 434.154 121.841 434.654C122.981 435.134 123.621 435.414 123.621 436.134C123.621 436.734 123.201 437.534 122.021 437.534C121.321 437.534 120.501 437.234 120.041 436.694L119.161 437.574C119.861 438.334 120.961 438.794 122.121 438.794C124.141 438.794 125.121 437.414 125.121 436.074C125.121 434.614 123.941 434.054 122.761 433.554C121.701 433.114 120.901 432.814 120.901 432.014C120.901 431.454 121.281 430.754 122.241 430.754C122.841 430.754 123.621 431.034 124.001 431.454L124.881 430.574Z" fill="black"/>
<path d="M457.781 418.634H459.281V409.634H454.221V406.534C454.221 405.494 454.961 404.774 456.001 404.774C456.301 404.774 456.601 404.854 456.821 404.974V403.694C456.501 403.554 456.121 403.494 455.741 403.494C453.901 403.494 452.681 404.694 452.681 406.534V409.634H451.421V410.834H452.681V418.634H454.221V410.834H457.781V418.634ZM457.521 406.934C457.521 407.494 457.961 407.934 458.521 407.934C459.081 407.934 459.521 407.494 459.521 406.934C459.521 406.374 459.081 405.934 458.521 405.934C457.961 405.934 457.521 406.374 457.521 406.934ZM462.163 409.634V418.634H463.663V411.734C464.203 411.174 465.003 410.834 465.943 410.834C467.283 410.834 468.183 411.794 468.183 413.194V418.634H469.683V413.194C469.683 410.994 468.343 409.494 466.303 409.494C465.263 409.494 464.363 409.814 463.663 410.394V409.634H462.163ZM479.474 417.654C478.854 417.654 478.534 417.394 478.534 416.874V412.334C478.534 410.794 477.494 409.494 475.274 409.494C474.094 409.494 473.114 409.874 472.314 410.674L473.094 411.454C473.594 410.954 474.434 410.734 475.154 410.734C476.534 410.734 477.034 411.554 477.034 412.334V413.534C477.034 413.534 476.534 413.394 475.674 413.394C473.494 413.394 471.974 414.334 471.974 416.194C471.974 417.554 472.814 418.794 474.594 418.794C475.594 418.794 476.494 418.394 477.174 417.734C477.414 418.374 477.994 418.754 478.834 418.754C479.074 418.754 479.334 418.714 479.474 418.654V417.654ZM475.034 417.534C473.874 417.534 473.474 416.774 473.474 416.034C473.474 414.934 474.354 414.454 475.794 414.454C476.574 414.454 477.034 414.594 477.034 414.594V416.694C476.494 417.254 475.714 417.534 475.034 417.534ZM484.476 417.634C483.636 417.634 483.116 417.234 483.116 416.374V403.634H481.616V416.414C481.616 417.874 482.436 418.734 483.736 418.734C483.976 418.734 484.336 418.694 484.476 418.634V417.634ZM499.087 418.634V403.634H497.587V410.134C496.907 409.734 496.087 409.494 495.187 409.494C492.467 409.494 490.627 411.374 490.627 414.134C490.627 416.914 492.367 418.794 494.947 418.794C495.967 418.794 496.867 418.474 497.587 417.914V418.634H499.087ZM492.167 414.134C492.167 412.174 493.447 410.834 495.307 410.834C496.267 410.834 497.047 411.154 497.587 411.694V416.574C497.047 417.114 496.247 417.434 495.307 417.434C493.447 417.434 492.167 416.094 492.167 414.134ZM509.847 414.554C509.847 411.454 508.467 409.494 505.787 409.494C503.147 409.494 501.447 411.374 501.447 414.094C501.447 416.934 503.327 418.794 506.087 418.794C507.507 418.794 508.647 418.294 509.467 417.454L508.567 416.514C508.007 417.094 507.187 417.434 506.187 417.434C504.347 417.434 503.167 416.294 503.027 414.554H509.847ZM505.787 410.814C507.267 410.814 508.167 411.834 508.347 413.454H503.027C503.207 411.834 504.287 410.814 505.787 410.814ZM517.145 410.574C516.465 409.874 515.425 409.494 514.385 409.494C512.525 409.494 511.665 410.754 511.665 412.054C511.665 413.594 512.845 414.154 514.105 414.654C515.245 415.134 515.885 415.414 515.885 416.134C515.885 416.734 515.465 417.534 514.285 417.534C513.585 417.534 512.765 417.234 512.305 416.694L511.425 417.574C512.125 418.334 513.225 418.794 514.385 418.794C516.405 418.794 517.385 417.414 517.385 416.074C517.385 414.614 516.205 414.054 515.025 413.554C513.965 413.114 513.165 412.814 513.165 412.014C513.165 411.454 513.545 410.754 514.505 410.754C515.105 410.754 515.885 411.034 516.265 411.454L517.145 410.574ZM519.721 418.634H521.221V409.634H519.721V418.634ZM519.481 406.934C519.481 407.494 519.921 407.934 520.481 407.934C521.041 407.934 521.481 407.494 521.481 406.934C521.481 406.374 521.041 405.934 520.481 405.934C519.921 405.934 519.481 406.374 519.481 406.934ZM523.116 420.994C523.116 422.634 524.696 423.794 527.216 423.794C529.856 423.794 531.816 422.554 531.816 420.754C531.816 419.094 530.156 417.994 527.576 417.994C526.276 417.994 525.476 417.574 525.476 416.994C525.476 416.414 526.096 415.994 527.236 415.994C529.376 415.994 530.816 414.674 530.816 412.734C530.816 412.094 530.656 411.534 530.376 411.054C530.656 410.854 531.056 410.694 531.476 410.694C531.636 410.694 531.756 410.714 531.876 410.734V409.534C531.696 409.514 531.536 409.494 531.356 409.494C530.716 409.494 530.116 409.774 529.676 410.254C529.056 409.774 528.236 409.494 527.276 409.494C525.176 409.494 523.716 410.794 523.716 412.774C523.716 413.974 524.256 414.994 525.276 415.514C524.436 415.834 524.016 416.394 524.016 417.034C524.016 417.674 524.396 418.194 525.176 418.534C523.936 418.954 523.116 419.814 523.116 420.994ZM524.676 420.994C524.676 419.914 525.796 419.174 527.576 419.174C529.176 419.174 530.276 419.814 530.276 420.774C530.276 421.854 528.916 422.614 527.216 422.614C525.616 422.614 524.676 421.954 524.676 420.994ZM525.216 412.734C525.216 411.534 526.076 410.694 527.296 410.694C528.516 410.694 529.356 411.534 529.356 412.734C529.356 413.954 528.516 414.794 527.296 414.794C526.076 414.794 525.216 413.954 525.216 412.734ZM534.018 409.634V418.634H535.518V411.734C536.058 411.174 536.858 410.834 537.798 410.834C539.138 410.834 540.038 411.794 540.038 413.194V418.634H541.538V413.194C541.538 410.994 540.198 409.494 538.158 409.494C537.118 409.494 536.218 409.814 535.518 410.394V409.634H534.018Z" fill="black"/>
<path d="M409.962 330.235L399.962 324.461V336.008L409.962 330.235ZM156.861 331.235H400.962V329.235H156.861V331.235Z" fill="#626262"/>
<path d="M214.94 290.077C214.94 288.117 216.22 286.777 218.08 286.777C219.06 286.777 219.86 287.137 220.4 287.717L221.34 286.797C220.52 285.937 219.38 285.437 218 285.437C215.26 285.437 213.4 287.317 213.4 290.077C213.4 292.857 215.26 294.737 218 294.737C219.38 294.737 220.52 294.237 221.34 293.397L220.4 292.457C219.86 293.037 219.06 293.377 218.08 293.377C216.22 293.377 214.94 292.037 214.94 290.077ZM227.411 285.457C226.491 285.457 225.631 285.917 224.971 286.677V285.577H223.471V294.577H224.971V287.997C225.511 287.237 226.371 286.757 227.331 286.757C227.571 286.757 227.811 286.777 228.031 286.817V285.497C227.831 285.477 227.631 285.457 227.411 285.457ZM237.64 290.497C237.64 287.397 236.26 285.437 233.58 285.437C230.94 285.437 229.24 287.317 229.24 290.037C229.24 292.877 231.12 294.737 233.88 294.737C235.3 294.737 236.44 294.237 237.26 293.397L236.36 292.457C235.8 293.037 234.98 293.377 233.98 293.377C232.14 293.377 230.96 292.237 230.82 290.497H237.64ZM233.58 286.757C235.06 286.757 235.96 287.777 236.14 289.397H230.82C231 287.777 232.08 286.757 233.58 286.757ZM246.856 293.597C246.236 293.597 245.916 293.337 245.916 292.817V288.277C245.916 286.737 244.876 285.437 242.656 285.437C241.476 285.437 240.496 285.817 239.696 286.617L240.476 287.397C240.976 286.897 241.816 286.677 242.536 286.677C243.916 286.677 244.416 287.497 244.416 288.277V289.477C244.416 289.477 243.916 289.337 243.056 289.337C240.876 289.337 239.356 290.277 239.356 292.137C239.356 293.497 240.196 294.737 241.976 294.737C242.976 294.737 243.876 294.337 244.556 293.677C244.796 294.317 245.376 294.697 246.216 294.697C246.456 294.697 246.716 294.657 246.856 294.597V293.597ZM242.416 293.477C241.256 293.477 240.856 292.717 240.856 291.977C240.856 290.877 241.736 290.397 243.176 290.397C243.956 290.397 244.416 290.537 244.416 290.537V292.637C243.876 293.197 243.096 293.477 242.416 293.477ZM248.04 286.777H249.2V291.777C249.2 293.557 250.32 294.737 252.08 294.737C252.44 294.737 252.82 294.677 253.14 294.537V293.237C252.92 293.377 252.62 293.437 252.34 293.437C251.38 293.437 250.74 292.757 250.74 291.777V286.777H253.14V285.577H250.74V283.577H249.2V285.577H248.04V286.777ZM263.089 290.497C263.089 287.397 261.709 285.437 259.029 285.437C256.389 285.437 254.689 287.317 254.689 290.037C254.689 292.877 256.569 294.737 259.329 294.737C260.749 294.737 261.889 294.237 262.709 293.397L261.809 292.457C261.249 293.037 260.429 293.377 259.429 293.377C257.589 293.377 256.409 292.237 256.269 290.497H263.089ZM259.029 286.757C260.509 286.757 261.409 287.777 261.589 289.397H256.269C256.449 287.777 257.529 286.757 259.029 286.757ZM276.915 293.597C276.295 293.597 275.975 293.337 275.975 292.817V288.277C275.975 286.737 274.935 285.437 272.715 285.437C271.535 285.437 270.555 285.817 269.755 286.617L270.535 287.397C271.035 286.897 271.875 286.677 272.595 286.677C273.975 286.677 274.475 287.497 274.475 288.277V289.477C274.475 289.477 273.975 289.337 273.115 289.337C270.935 289.337 269.415 290.277 269.415 292.137C269.415 293.497 270.255 294.737 272.035 294.737C273.035 294.737 273.935 294.337 274.615 293.677C274.855 294.317 275.435 294.697 276.275 294.697C276.515 294.697 276.775 294.657 276.915 294.597V293.597ZM272.475 293.477C271.315 293.477 270.915 292.717 270.915 291.977C270.915 290.877 271.795 290.397 273.235 290.397C274.015 290.397 274.475 290.537 274.475 290.537V292.637C273.935 293.197 273.155 293.477 272.475 293.477ZM283.667 285.577V294.577H285.167V287.677C285.707 287.117 286.507 286.777 287.447 286.777C288.787 286.777 289.687 287.737 289.687 289.137V294.577H291.187V289.137C291.187 286.937 289.847 285.437 287.807 285.437C286.767 285.437 285.867 285.757 285.167 286.337V285.577H283.667ZM301.917 290.497C301.917 287.397 300.537 285.437 297.857 285.437C295.217 285.437 293.517 287.317 293.517 290.037C293.517 292.877 295.397 294.737 298.157 294.737C299.577 294.737 300.717 294.237 301.537 293.397L300.637 292.457C300.077 293.037 299.257 293.377 298.257 293.377C296.417 293.377 295.237 292.237 295.097 290.497H301.917ZM297.857 286.757C299.337 286.757 300.237 287.777 300.417 289.397H295.097C295.277 287.777 296.357 286.757 297.857 286.757ZM316.963 285.577H315.243L312.843 292.757L310.583 285.577H309.063L306.803 292.757L304.403 285.577H302.683L306.023 294.577H307.603L309.823 287.677L312.063 294.577H313.623L316.963 285.577ZM227.08 305.577H225.36L222.96 312.757L220.7 305.577H219.18L216.92 312.757L214.52 305.577H212.8L216.14 314.577H217.72L219.94 307.677L222.18 314.577H223.74L227.08 305.577ZM228.842 299.577V314.577H230.342V307.677C230.882 307.117 231.682 306.777 232.622 306.777C233.962 306.777 234.862 307.737 234.862 309.137V314.577H236.362V309.137C236.362 306.937 235.022 305.437 232.982 305.437C231.942 305.437 231.042 305.757 230.342 306.337V299.577H228.842ZM238.751 310.077C238.751 312.857 240.611 314.737 243.351 314.737C246.091 314.737 247.971 312.857 247.971 310.077C247.971 307.317 246.091 305.437 243.351 305.437C240.611 305.437 238.751 307.317 238.751 310.077ZM240.291 310.077C240.291 308.117 241.531 306.777 243.351 306.777C245.151 306.777 246.411 308.117 246.411 310.077C246.411 312.037 245.151 313.377 243.351 313.377C241.531 313.377 240.291 312.037 240.291 310.077ZM253.148 313.577C252.308 313.577 251.788 313.177 251.788 312.317V299.577H250.288V312.357C250.288 313.817 251.108 314.677 252.408 314.677C252.648 314.677 253.008 314.637 253.148 314.577V313.577ZM263.089 310.497C263.089 307.397 261.709 305.437 259.029 305.437C256.389 305.437 254.689 307.317 254.689 310.037C254.689 312.877 256.569 314.737 259.329 314.737C260.749 314.737 261.889 314.237 262.709 313.397L261.809 312.457C261.249 313.037 260.429 313.377 259.429 313.377C257.589 313.377 256.409 312.237 256.269 310.497H263.089ZM259.029 306.757C260.509 306.757 261.409 307.777 261.589 309.397H256.269C256.449 307.777 257.529 306.757 259.029 306.757ZM273.595 299.437C271.495 299.437 269.755 303.557 269.755 309.577C269.755 315.617 271.495 319.737 273.595 319.737V318.577C272.415 318.577 271.295 314.917 271.295 309.577C271.295 304.237 272.415 300.577 273.595 300.577V299.437ZM280.992 306.517C280.312 305.817 279.272 305.437 278.232 305.437C276.372 305.437 275.512 306.697 275.512 307.997C275.512 309.537 276.692 310.097 277.952 310.597C279.092 311.077 279.732 311.357 279.732 312.077C279.732 312.677 279.312 313.477 278.132 313.477C277.432 313.477 276.612 313.177 276.152 312.637L275.272 313.517C275.972 314.277 277.072 314.737 278.232 314.737C280.252 314.737 281.232 313.357 281.232 312.017C281.232 310.557 280.052 309.997 278.872 309.497C277.812 309.057 277.012 308.757 277.012 307.957C277.012 307.397 277.392 306.697 278.352 306.697C278.952 306.697 279.732 306.977 280.112 307.397L280.992 306.517ZM291.376 305.577H289.716L286.756 312.777L283.816 305.577H282.136L286.056 314.577L283.556 319.577H285.216L291.376 305.577ZM293.139 305.577V314.577H294.639V307.677C295.179 307.117 295.979 306.777 296.919 306.777C298.259 306.777 299.159 307.737 299.159 309.137V314.577H300.659V309.137C300.659 306.937 299.319 305.437 297.279 305.437C296.239 305.437 295.339 305.757 294.639 306.337V305.577H293.139ZM302.532 306.777H303.692V311.777C303.692 313.557 304.812 314.737 306.572 314.737C306.932 314.737 307.312 314.677 307.632 314.537V313.237C307.412 313.377 307.112 313.437 306.832 313.437C305.872 313.437 305.232 312.757 305.232 311.777V306.777H307.632V305.577H305.232V303.577H303.692V305.577H302.532V306.777ZM309.78 299.577V314.577H311.28V307.677C311.82 307.117 312.62 306.777 313.56 306.777C314.9 306.777 315.8 307.737 315.8 309.137V314.577H317.3V309.137C317.3 306.937 315.96 305.437 313.92 305.437C312.88 305.437 311.98 305.757 311.28 306.337V299.577H309.78ZM328.109 310.497C328.109 307.397 326.729 305.437 324.049 305.437C321.409 305.437 319.709 307.317 319.709 310.037C319.709 312.877 321.589 314.737 324.349 314.737C325.769 314.737 326.909 314.237 327.729 313.397L326.829 312.457C326.269 313.037 325.449 313.377 324.449 313.377C322.609 313.377 321.429 312.237 321.289 310.497H328.109ZM324.049 306.757C325.529 306.757 326.429 307.777 326.609 309.397H321.289C321.469 307.777 322.549 306.757 324.049 306.757ZM335.406 306.517C334.726 305.817 333.686 305.437 332.646 305.437C330.786 305.437 329.926 306.697 329.926 307.997C329.926 309.537 331.106 310.097 332.366 310.597C333.506 311.077 334.146 311.357 334.146 312.077C334.146 312.677 333.726 313.477 332.546 313.477C331.846 313.477 331.026 313.177 330.566 312.637L329.686 313.517C330.386 314.277 331.486 314.737 332.646 314.737C334.666 314.737 335.646 313.357 335.646 312.017C335.646 310.557 334.466 309.997 333.286 309.497C332.226 309.057 331.426 308.757 331.426 307.957C331.426 307.397 331.806 306.697 332.766 306.697C333.366 306.697 334.146 306.977 334.526 307.397L335.406 306.517ZM337.983 314.577H339.483V305.577H337.983V314.577ZM337.743 302.877C337.743 303.437 338.183 303.877 338.743 303.877C339.303 303.877 339.743 303.437 339.743 302.877C339.743 302.317 339.303 301.877 338.743 301.877C338.183 301.877 337.743 302.317 337.743 302.877ZM347.438 306.517C346.758 305.817 345.718 305.437 344.678 305.437C342.818 305.437 341.958 306.697 341.958 307.997C341.958 309.537 343.138 310.097 344.398 310.597C345.538 311.077 346.178 311.357 346.178 312.077C346.178 312.677 345.758 313.477 344.578 313.477C343.877 313.477 343.058 313.177 342.598 312.637L341.718 313.517C342.418 314.277 343.518 314.737 344.678 314.737C346.698 314.737 347.678 313.357 347.678 312.017C347.678 310.557 346.498 309.997 345.318 309.497C344.258 309.057 343.458 308.757 343.458 307.957C343.458 307.397 343.838 306.697 344.798 306.697C345.398 306.697 346.178 306.977 346.558 307.397L347.438 306.517ZM349.474 300.577C350.654 300.577 351.774 304.237 351.774 309.577C351.774 314.917 350.654 318.577 349.474 318.577V319.737C351.574 319.737 353.314 315.617 353.314 309.577C353.314 303.557 351.574 299.437 349.474 299.437V300.577Z" fill="black"/>
<path d="M221.86 357.245V342.245H220.36V348.745C219.68 348.345 218.86 348.105 217.96 348.105C215.24 348.105 213.4 349.985 213.4 352.745C213.4 355.525 215.14 357.405 217.72 357.405C218.74 357.405 219.64 357.085 220.36 356.525V357.245H221.86ZM214.94 352.745C214.94 350.785 216.22 349.445 218.08 349.445C219.04 349.445 219.82 349.765 220.36 350.305V355.185C219.82 355.725 219.02 356.045 218.08 356.045C216.22 356.045 214.94 354.705 214.94 352.745ZM232.62 353.165C232.62 350.065 231.24 348.105 228.56 348.105C225.92 348.105 224.22 349.985 224.22 352.705C224.22 355.545 226.1 357.405 228.86 357.405C230.28 357.405 231.42 356.905 232.24 356.065L231.34 355.125C230.78 355.705 229.96 356.045 228.96 356.045C227.12 356.045 225.94 354.905 225.8 353.165H232.62ZM228.56 349.425C230.04 349.425 230.94 350.445 231.12 352.065H225.8C225.98 350.445 227.06 349.425 228.56 349.425ZM239.918 349.185C239.238 348.485 238.198 348.105 237.158 348.105C235.298 348.105 234.438 349.365 234.438 350.665C234.438 352.205 235.618 352.765 236.878 353.265C238.018 353.745 238.658 354.025 238.658 354.745C238.658 355.345 238.238 356.145 237.058 356.145C236.358 356.145 235.538 355.845 235.078 355.305L234.198 356.185C234.898 356.945 235.998 357.405 237.158 357.405C239.178 357.405 240.158 356.025 240.158 354.685C240.158 353.225 238.978 352.665 237.798 352.165C236.738 351.725 235.938 351.425 235.938 350.625C235.938 350.065 236.318 349.365 237.278 349.365C237.878 349.365 238.658 349.645 239.038 350.065L239.918 349.185ZM242.495 357.245H243.995V348.245H242.495V357.245ZM242.255 345.545C242.255 346.105 242.695 346.545 243.255 346.545C243.815 346.545 244.255 346.105 244.255 345.545C244.255 344.985 243.815 344.545 243.255 344.545C242.695 344.545 242.255 344.985 242.255 345.545ZM245.889 359.605C245.889 361.245 247.469 362.405 249.989 362.405C252.629 362.405 254.589 361.165 254.589 359.365C254.589 357.705 252.929 356.605 250.349 356.605C249.049 356.605 248.249 356.185 248.249 355.605C248.249 355.025 248.869 354.605 250.009 354.605C252.149 354.605 253.589 353.285 253.589 351.345C253.589 350.705 253.429 350.145 253.149 349.665C253.429 349.465 253.829 349.305 254.249 349.305C254.409 349.305 254.529 349.325 254.649 349.345V348.145C254.469 348.125 254.309 348.105 254.129 348.105C253.489 348.105 252.889 348.385 252.449 348.865C251.829 348.385 251.009 348.105 250.049 348.105C247.949 348.105 246.489 349.405 246.489 351.385C246.489 352.585 247.029 353.605 248.049 354.125C247.209 354.445 246.789 355.005 246.789 355.645C246.789 356.285 247.169 356.805 247.949 357.145C246.709 357.565 245.889 358.425 245.889 359.605ZM247.449 359.605C247.449 358.525 248.569 357.785 250.349 357.785C251.949 357.785 253.049 358.425 253.049 359.385C253.049 360.465 251.689 361.225 249.989 361.225C248.389 361.225 247.449 360.565 247.449 359.605ZM247.989 351.345C247.989 350.145 248.849 349.305 250.069 349.305C251.289 349.305 252.129 350.145 252.129 351.345C252.129 352.565 251.289 353.405 250.069 353.405C248.849 353.405 247.989 352.565 247.989 351.345ZM256.792 348.245V357.245H258.292V350.345C258.832 349.785 259.632 349.445 260.572 349.445C261.912 349.445 262.812 350.405 262.812 351.805V357.245H264.312V351.805C264.312 349.605 262.972 348.105 260.932 348.105C259.892 348.105 258.992 348.425 258.292 349.005V348.245H256.792ZM271.792 348.245V362.245H273.292V356.765C273.972 357.185 274.792 357.405 275.712 357.405C278.432 357.405 280.272 355.525 280.272 352.745C280.272 349.985 278.532 348.105 275.952 348.105C274.912 348.105 273.992 348.425 273.292 349.005V348.245H271.792ZM278.712 352.745C278.712 354.705 277.432 356.045 275.572 356.045C274.632 356.045 273.832 355.745 273.292 355.205V350.345C273.832 349.785 274.632 349.445 275.572 349.445C277.432 349.445 278.712 350.785 278.712 352.745ZM286.552 348.125C285.632 348.125 284.772 348.585 284.112 349.345V348.245H282.612V357.245H284.112V350.665C284.652 349.905 285.512 349.425 286.472 349.425C286.712 349.425 286.952 349.445 287.172 349.485V348.165C286.972 348.145 286.772 348.125 286.552 348.125ZM288.36 352.745C288.36 355.525 290.22 357.405 292.96 357.405C295.7 357.405 297.58 355.525 297.58 352.745C297.58 349.985 295.7 348.105 292.96 348.105C290.22 348.105 288.36 349.985 288.36 352.745ZM289.9 352.745C289.9 350.785 291.14 349.445 292.96 349.445C294.76 349.445 296.02 350.785 296.02 352.745C296.02 354.705 294.76 356.045 292.96 356.045C291.14 356.045 289.9 354.705 289.9 352.745ZM300.897 352.745C300.897 350.785 302.177 349.445 304.037 349.445C305.017 349.445 305.817 349.805 306.357 350.385L307.297 349.465C306.477 348.605 305.337 348.105 303.957 348.105C301.217 348.105 299.357 349.985 299.357 352.745C299.357 355.525 301.217 357.405 303.957 357.405C305.337 357.405 306.477 356.905 307.297 356.065L306.357 355.125C305.817 355.705 305.017 356.045 304.037 356.045C302.177 356.045 300.897 354.705 300.897 352.745ZM317.191 353.165C317.191 350.065 315.811 348.105 313.131 348.105C310.491 348.105 308.791 349.985 308.791 352.705C308.791 355.545 310.671 357.405 313.431 357.405C314.851 357.405 315.991 356.905 316.811 356.065L315.911 355.125C315.351 355.705 314.531 356.045 313.531 356.045C311.691 356.045 310.511 354.905 310.371 353.165H317.191ZM313.131 349.425C314.611 349.425 315.511 350.445 315.691 352.065H310.371C310.551 350.445 311.631 349.425 313.131 349.425ZM324.488 349.185C323.808 348.485 322.768 348.105 321.728 348.105C319.868 348.105 319.008 349.365 319.008 350.665C319.008 352.205 320.188 352.765 321.448 353.265C322.588 353.745 323.228 354.025 323.228 354.745C323.228 355.345 322.808 356.145 321.628 356.145C320.928 356.145 320.108 355.845 319.648 355.305L318.768 356.185C319.468 356.945 320.568 357.405 321.728 357.405C323.748 357.405 324.728 356.025 324.728 354.685C324.728 353.225 323.548 352.665 322.368 352.165C321.308 351.725 320.508 351.425 320.508 350.625C320.508 350.065 320.888 349.365 321.848 349.365C322.448 349.365 323.228 349.645 323.608 350.065L324.488 349.185ZM332.125 349.185C331.445 348.485 330.405 348.105 329.365 348.105C327.505 348.105 326.645 349.365 326.645 350.665C326.645 352.205 327.825 352.765 329.085 353.265C330.225 353.745 330.865 354.025 330.865 354.745C330.865 355.345 330.445 356.145 329.265 356.145C328.565 356.145 327.745 355.845 327.285 355.305L326.405 356.185C327.105 356.945 328.205 357.405 329.365 357.405C331.385 357.405 332.365 356.025 332.365 354.685C332.365 353.225 331.185 352.665 330.005 352.165C328.945 351.725 328.145 351.425 328.145 350.625C328.145 350.065 328.525 349.365 329.485 349.365C330.085 349.365 330.865 349.645 331.245 350.065L332.125 349.185Z" fill="black"/>
<path d="M497.281 242.915L503.055 232.915H491.508L497.281 242.915ZM496.281 155.595V233.915H498.281V155.595H496.281Z" fill="#626262"/>
<path d="M317.424 168.38C316.504 168.38 315.644 168.84 314.984 169.6V168.5H313.484V177.5H314.984V170.92C315.524 170.16 316.384 169.68 317.344 169.68C317.584 169.68 317.824 169.7 318.044 169.74V168.42C317.844 168.4 317.644 168.38 317.424 168.38ZM327.652 173.42C327.652 170.32 326.272 168.36 323.592 168.36C320.952 168.36 319.252 170.24 319.252 172.96C319.252 175.8 321.132 177.66 323.892 177.66C325.312 177.66 326.452 177.16 327.272 176.32L326.372 175.38C325.812 175.96 324.992 176.3 323.992 176.3C322.152 176.3 320.972 175.16 320.832 173.42H327.652ZM323.592 169.68C325.072 169.68 325.972 170.7 326.152 172.32H320.832C321.012 170.7 322.092 169.68 323.592 169.68ZM332.809 176.5C331.969 176.5 331.449 176.1 331.449 175.24V162.5H329.949V175.28C329.949 176.74 330.769 177.6 332.069 177.6C332.309 177.6 332.669 177.56 332.809 177.5V176.5ZM341.81 176.52C341.19 176.52 340.87 176.26 340.87 175.74V171.2C340.87 169.66 339.83 168.36 337.61 168.36C336.43 168.36 335.45 168.74 334.65 169.54L335.43 170.32C335.93 169.82 336.77 169.6 337.49 169.6C338.87 169.6 339.37 170.42 339.37 171.2V172.4C339.37 172.4 338.87 172.26 338.01 172.26C335.83 172.26 334.31 173.2 334.31 175.06C334.31 176.42 335.15 177.66 336.93 177.66C337.93 177.66 338.83 177.26 339.51 176.6C339.75 177.24 340.33 177.62 341.17 177.62C341.41 177.62 341.67 177.58 341.81 177.52V176.52ZM337.37 176.4C336.21 176.4 335.81 175.64 335.81 174.9C335.81 173.8 336.69 173.32 338.13 173.32C338.91 173.32 339.37 173.46 339.37 173.46V175.56C338.83 176.12 338.05 176.4 337.37 176.4ZM342.994 169.7H344.154V174.7C344.154 176.48 345.274 177.66 347.034 177.66C347.394 177.66 347.774 177.6 348.094 177.46V176.16C347.874 176.3 347.574 176.36 347.294 176.36C346.334 176.36 345.694 175.68 345.694 174.7V169.7H348.094V168.5H345.694V166.5H344.154V168.5H342.994V169.7ZM350.242 177.5H351.742V168.5H350.242V177.5ZM350.002 165.8C350.002 166.36 350.442 166.8 351.002 166.8C351.562 166.8 352.002 166.36 352.002 165.8C352.002 165.24 351.562 164.8 351.002 164.8C350.442 164.8 350.002 165.24 350.002 165.8ZM354.076 173C354.076 175.78 355.936 177.66 358.676 177.66C361.416 177.66 363.296 175.78 363.296 173C363.296 170.24 361.416 168.36 358.676 168.36C355.936 168.36 354.076 170.24 354.076 173ZM355.616 173C355.616 171.04 356.856 169.7 358.676 169.7C360.476 169.7 361.736 171.04 361.736 173C361.736 174.96 360.476 176.3 358.676 176.3C356.856 176.3 355.616 174.96 355.616 173ZM365.613 168.5V177.5H367.113V170.6C367.653 170.04 368.453 169.7 369.393 169.7C370.733 169.7 371.633 170.66 371.633 172.06V177.5H373.133V172.06C373.133 169.86 371.793 168.36 369.753 168.36C368.713 168.36 367.813 168.68 367.113 169.26V168.5H365.613ZM381.063 169.44C380.383 168.74 379.343 168.36 378.303 168.36C376.443 168.36 375.583 169.62 375.583 170.92C375.583 172.46 376.763 173.02 378.023 173.52C379.163 174 379.803 174.28 379.803 175C379.803 175.6 379.383 176.4 378.203 176.4C377.503 176.4 376.683 176.1 376.223 175.56L375.343 176.44C376.043 177.2 377.143 177.66 378.303 177.66C380.323 177.66 381.303 176.28 381.303 174.94C381.303 173.48 380.123 172.92 378.943 172.42C377.883 171.98 377.083 171.68 377.083 170.88C377.083 170.32 377.463 169.62 378.423 169.62C379.023 169.62 379.803 169.9 380.183 170.32L381.063 169.44ZM383.64 162.5V177.5H385.14V170.6C385.68 170.04 386.48 169.7 387.42 169.7C388.76 169.7 389.66 170.66 389.66 172.06V177.5H391.16V172.06C391.16 169.86 389.82 168.36 387.78 168.36C386.74 168.36 385.84 168.68 385.14 169.26V162.5H383.64ZM394.109 177.5H395.609V168.5H394.109V177.5ZM393.869 165.8C393.869 166.36 394.309 166.8 394.869 166.8C395.429 166.8 395.869 166.36 395.869 165.8C395.869 165.24 395.429 164.8 394.869 164.8C394.309 164.8 393.869 165.24 393.869 165.8ZM398.503 168.5V182.5H400.003V177.02C400.683 177.44 401.503 177.66 402.423 177.66C405.143 177.66 406.983 175.78 406.983 173C406.983 170.24 405.243 168.36 402.663 168.36C401.623 168.36 400.703 168.68 400.003 169.26V168.5H398.503ZM405.423 173C405.423 174.96 404.143 176.3 402.283 176.3C401.343 176.3 400.543 176 400.003 175.46V170.6C400.543 170.04 401.343 169.7 402.283 169.7C404.143 169.7 405.423 171.04 405.423 173ZM417.513 177.66C420.633 177.66 422.373 175.78 422.373 173.02C422.373 170.24 420.573 168.36 417.933 168.36C416.973 168.36 416.113 168.62 415.433 169.1V162.5H413.933V176.4C414.893 177.36 416.293 177.66 417.513 177.66ZM420.833 173.04C420.833 174.96 419.673 176.3 417.633 176.3C416.873 176.3 416.033 176.12 415.433 175.66V170.66C415.993 170.02 416.813 169.7 417.713 169.7C419.573 169.7 420.833 171.04 420.833 173.04ZM432.574 173.42C432.574 170.32 431.194 168.36 428.514 168.36C425.874 168.36 424.174 170.24 424.174 172.96C424.174 175.8 426.054 177.66 428.814 177.66C430.234 177.66 431.374 177.16 432.194 176.32L431.294 175.38C430.734 175.96 429.914 176.3 428.914 176.3C427.074 176.3 425.894 175.16 425.754 173.42H432.574ZM428.514 169.68C429.994 169.68 430.894 170.7 431.074 172.32H425.754C425.934 170.7 427.014 169.68 428.514 169.68ZM433.971 169.7H435.131V174.7C435.131 176.48 436.251 177.66 438.011 177.66C438.371 177.66 438.751 177.6 439.071 177.46V176.16C438.851 176.3 438.551 176.36 438.271 176.36C437.311 176.36 436.671 175.68 436.671 174.7V169.7H439.071V168.5H436.671V166.5H435.131V168.5H433.971V169.7ZM454.358 168.5H452.638L450.238 175.68L447.978 168.5H446.458L444.198 175.68L441.798 168.5H440.078L443.418 177.5H444.998L447.218 170.6L449.458 177.5H451.018L454.358 168.5ZM463.59 173.42C463.59 170.32 462.21 168.36 459.53 168.36C456.89 168.36 455.19 170.24 455.19 172.96C455.19 175.8 457.07 177.66 459.83 177.66C461.25 177.66 462.39 177.16 463.21 176.32L462.31 175.38C461.75 175.96 460.93 176.3 459.93 176.3C458.09 176.3 456.91 175.16 456.77 173.42H463.59ZM459.53 169.68C461.01 169.68 461.91 170.7 462.09 172.32H456.77C456.95 170.7 458.03 169.68 459.53 169.68ZM473.746 173.42C473.746 170.32 472.366 168.36 469.686 168.36C467.046 168.36 465.346 170.24 465.346 172.96C465.346 175.8 467.226 177.66 469.986 177.66C471.406 177.66 472.546 177.16 473.366 176.32L472.466 175.38C471.906 175.96 471.086 176.3 470.086 176.3C468.246 176.3 467.066 175.16 466.926 173.42H473.746ZM469.686 169.68C471.166 169.68 472.066 170.7 472.246 172.32H466.926C467.106 170.7 468.186 169.68 469.686 169.68ZM476.042 168.5V177.5H477.542V170.6C478.082 170.04 478.882 169.7 479.822 169.7C481.162 169.7 482.062 170.66 482.062 172.06V177.5H483.562V172.06C483.562 169.86 482.222 168.36 480.182 168.36C479.142 168.36 478.242 168.68 477.542 169.26V168.5H476.042ZM323.697 189.7H324.857V194.7C324.857 196.48 325.977 197.66 327.737 197.66C328.097 197.66 328.477 197.6 328.797 197.46V196.16C328.577 196.3 328.277 196.36 327.997 196.36C327.037 196.36 326.397 195.68 326.397 194.7V189.7H328.797V188.5H326.397V186.5H324.857V188.5H323.697V189.7ZM330.945 182.5V197.5H332.445V190.6C332.985 190.04 333.785 189.7 334.725 189.7C336.065 189.7 336.965 190.66 336.965 192.06V197.5H338.465V192.06C338.465 189.86 337.125 188.36 335.085 188.36C334.045 188.36 333.145 188.68 332.445 189.26V182.5H330.945ZM349.274 193.42C349.274 190.32 347.894 188.36 345.214 188.36C342.574 188.36 340.874 190.24 340.874 192.96C340.874 195.8 342.754 197.66 345.514 197.66C346.934 197.66 348.074 197.16 348.894 196.32L347.994 195.38C347.434 195.96 346.614 196.3 345.614 196.3C343.774 196.3 342.594 195.16 342.454 193.42H349.274ZM345.214 189.68C346.694 189.68 347.594 190.7 347.774 192.32H342.454C342.634 190.7 343.714 189.68 345.214 189.68ZM357.179 193C357.179 191.04 358.459 189.7 360.319 189.7C361.299 189.7 362.099 190.06 362.639 190.64L363.579 189.72C362.759 188.86 361.619 188.36 360.239 188.36C357.499 188.36 355.639 190.24 355.639 193C355.639 195.78 357.499 197.66 360.239 197.66C361.619 197.66 362.759 197.16 363.579 196.32L362.639 195.38C362.099 195.96 361.299 196.3 360.319 196.3C358.459 196.3 357.179 194.96 357.179 193ZM365.053 193C365.053 195.78 366.913 197.66 369.653 197.66C372.393 197.66 374.273 195.78 374.273 193C374.273 190.24 372.393 188.36 369.653 188.36C366.913 188.36 365.053 190.24 365.053 193ZM366.593 193C366.593 191.04 367.833 189.7 369.653 189.7C371.453 189.7 372.713 191.04 372.713 193C372.713 194.96 371.453 196.3 369.653 196.3C367.833 196.3 366.593 194.96 366.593 193ZM376.589 188.5V197.5H378.089V190.6C378.629 190.04 379.429 189.7 380.369 189.7C381.709 189.7 382.609 190.66 382.609 192.06V197.5H384.109V192.06C384.109 189.86 382.769 188.36 380.729 188.36C379.689 188.36 378.789 188.68 378.089 189.26V188.5H376.589ZM385.982 189.7H387.142V194.7C387.142 196.48 388.262 197.66 390.022 197.66C390.382 197.66 390.762 197.6 391.082 197.46V196.16C390.862 196.3 390.562 196.36 390.282 196.36C389.322 196.36 388.682 195.68 388.682 194.7V189.7H391.082V188.5H388.682V186.5H387.142V188.5H385.982V189.7ZM401.031 193.42C401.031 190.32 399.651 188.36 396.971 188.36C394.331 188.36 392.631 190.24 392.631 192.96C392.631 195.8 394.511 197.66 397.271 197.66C398.691 197.66 399.831 197.16 400.651 196.32L399.751 195.38C399.191 195.96 398.371 196.3 397.371 196.3C395.531 196.3 394.351 195.16 394.211 193.42H401.031ZM396.971 189.68C398.451 189.68 399.351 190.7 399.531 192.32H394.211C394.391 190.7 395.471 189.68 396.971 189.68ZM403.328 188.5V197.5H404.828V190.6C405.368 190.04 406.168 189.7 407.108 189.7C408.448 189.7 409.348 190.66 409.348 192.06V197.5H410.848V192.06C410.848 189.86 409.508 188.36 407.468 188.36C406.428 188.36 405.528 188.68 404.828 189.26V188.5H403.328ZM412.721 189.7H413.881V194.7C413.881 196.48 415.001 197.66 416.761 197.66C417.121 197.66 417.501 197.6 417.821 197.46V196.16C417.601 196.3 417.301 196.36 417.021 196.36C416.061 196.36 415.421 195.68 415.421 194.7V189.7H417.821V188.5H415.421V186.5H413.881V188.5H412.721V189.7ZM431.498 196.52C430.878 196.52 430.558 196.26 430.558 195.74V191.2C430.558 189.66 429.518 188.36 427.298 188.36C426.118 188.36 425.138 188.74 424.338 189.54L425.118 190.32C425.618 189.82 426.458 189.6 427.178 189.6C428.558 189.6 429.058 190.42 429.058 191.2V192.4C429.058 192.4 428.558 192.26 427.698 192.26C425.518 192.26 423.998 193.2 423.998 195.06C423.998 196.42 424.838 197.66 426.618 197.66C427.618 197.66 428.518 197.26 429.198 196.6C429.438 197.24 430.018 197.62 430.858 197.62C431.098 197.62 431.358 197.58 431.498 197.52V196.52ZM427.058 196.4C425.898 196.4 425.498 195.64 425.498 194.9C425.498 193.8 426.378 193.32 427.818 193.32C428.598 193.32 429.058 193.46 429.058 193.46V195.56C428.518 196.12 427.738 196.4 427.058 196.4ZM433.64 188.5V197.5H435.14V190.6C435.68 190.04 436.48 189.7 437.42 189.7C438.76 189.7 439.66 190.66 439.66 192.06V197.5H441.16V192.06C441.16 189.86 439.82 188.36 437.78 188.36C436.74 188.36 435.84 188.68 435.14 189.26V188.5H433.64ZM451.951 197.5V182.5H450.451V189C449.771 188.6 448.951 188.36 448.051 188.36C445.331 188.36 443.491 190.24 443.491 193C443.491 195.78 445.231 197.66 447.811 197.66C448.831 197.66 449.731 197.34 450.451 196.78V197.5H451.951ZM445.031 193C445.031 191.04 446.311 189.7 448.171 189.7C449.131 189.7 449.911 190.02 450.451 190.56V195.44C449.911 195.98 449.111 196.3 448.171 196.3C446.311 196.3 445.031 194.96 445.031 193ZM458.56 189.7H459.72V194.7C459.72 196.48 460.84 197.66 462.6 197.66C462.96 197.66 463.34 197.6 463.66 197.46V196.16C463.44 196.3 463.14 196.36 462.86 196.36C461.9 196.36 461.26 195.68 461.26 194.7V189.7H463.66V188.5H461.26V186.5H459.72V188.5H458.56V189.7ZM465.808 182.5V197.5H467.308V190.6C467.848 190.04 468.648 189.7 469.588 189.7C470.928 189.7 471.828 190.66 471.828 192.06V197.5H473.328V192.06C473.328 189.86 471.988 188.36 469.948 188.36C468.908 188.36 468.008 188.68 467.308 189.26V182.5H465.808ZM484.137 193.42C484.137 190.32 482.757 188.36 480.077 188.36C477.437 188.36 475.737 190.24 475.737 192.96C475.737 195.8 477.617 197.66 480.377 197.66C481.797 197.66 482.937 197.16 483.757 196.32L482.857 195.38C482.297 195.96 481.477 196.3 480.477 196.3C478.637 196.3 477.457 195.16 477.317 193.42H484.137ZM480.077 189.68C481.557 189.68 482.457 190.7 482.637 192.32H477.317C477.497 190.7 478.577 189.68 480.077 189.68ZM318.57 213.42C318.57 210.32 317.19 208.36 314.51 208.36C311.87 208.36 310.17 210.24 310.17 212.96C310.17 215.8 312.05 217.66 314.81 217.66C316.23 217.66 317.37 217.16 318.19 216.32L317.29 215.38C316.73 215.96 315.91 216.3 314.91 216.3C313.07 216.3 311.89 215.16 311.75 213.42H318.57ZM314.51 209.68C315.99 209.68 316.89 210.7 317.07 212.32H311.75C311.93 210.7 313.01 209.68 314.51 209.68ZM326.574 217.5H328.314L324.894 212.92L328.154 208.5H326.414L323.914 211.94L321.434 208.5H319.674L322.934 212.92L319.534 217.5H321.274L323.914 213.88L326.574 217.5ZM329.244 209.7H330.404V214.7C330.404 216.48 331.524 217.66 333.284 217.66C333.644 217.66 334.024 217.6 334.344 217.46V216.16C334.124 216.3 333.824 216.36 333.544 216.36C332.584 216.36 331.944 215.68 331.944 214.7V209.7H334.344V208.5H331.944V206.5H330.404V208.5H329.244V209.7ZM344.293 213.42C344.293 210.32 342.913 208.36 340.233 208.36C337.593 208.36 335.893 210.24 335.893 212.96C335.893 215.8 337.773 217.66 340.533 217.66C341.953 217.66 343.093 217.16 343.913 216.32L343.013 215.38C342.453 215.96 341.633 216.3 340.633 216.3C338.793 216.3 337.613 215.16 337.473 213.42H344.293ZM340.233 209.68C341.713 209.68 342.613 210.7 342.793 212.32H337.473C337.653 210.7 338.733 209.68 340.233 209.68ZM350.529 208.38C349.609 208.38 348.749 208.84 348.089 209.6V208.5H346.589V217.5H348.089V210.92C348.629 210.16 349.489 209.68 350.449 209.68C350.689 209.68 350.929 209.7 351.149 209.74V208.42C350.949 208.4 350.749 208.38 350.529 208.38ZM353.289 208.5V217.5H354.789V210.6C355.329 210.04 356.129 209.7 357.069 209.7C358.409 209.7 359.309 210.66 359.309 212.06V217.5H360.809V212.06C360.809 209.86 359.469 208.36 357.429 208.36C356.389 208.36 355.489 208.68 354.789 209.26V208.5H353.289ZM370.599 216.52C369.979 216.52 369.659 216.26 369.659 215.74V211.2C369.659 209.66 368.619 208.36 366.399 208.36C365.219 208.36 364.239 208.74 363.439 209.54L364.219 210.32C364.719 209.82 365.559 209.6 366.279 209.6C367.659 209.6 368.159 210.42 368.159 211.2V212.4C368.159 212.4 367.659 212.26 366.799 212.26C364.619 212.26 363.099 213.2 363.099 215.06C363.099 216.42 363.939 217.66 365.719 217.66C366.719 217.66 367.619 217.26 368.299 216.6C368.539 217.24 369.119 217.62 369.959 217.62C370.199 217.62 370.459 217.58 370.599 217.52V216.52ZM366.159 216.4C364.999 216.4 364.599 215.64 364.599 214.9C364.599 213.8 365.479 213.32 366.919 213.32C367.699 213.32 368.159 213.46 368.159 213.46V215.56C367.619 216.12 366.839 216.4 366.159 216.4ZM375.602 216.5C374.762 216.5 374.242 216.1 374.242 215.24V202.5H372.742V215.28C372.742 216.74 373.562 217.6 374.862 217.6C375.102 217.6 375.462 217.56 375.602 217.5V216.5ZM390.152 213.42C390.152 210.32 388.772 208.36 386.092 208.36C383.452 208.36 381.752 210.24 381.752 212.96C381.752 215.8 383.632 217.66 386.392 217.66C387.812 217.66 388.952 217.16 389.772 216.32L388.872 215.38C388.312 215.96 387.492 216.3 386.492 216.3C384.652 216.3 383.472 215.16 383.332 213.42H390.152ZM386.092 209.68C387.572 209.68 388.472 210.7 388.652 212.32H383.332C383.512 210.7 384.592 209.68 386.092 209.68ZM392.449 208.5V217.5H393.949V210.6C394.489 210.04 395.289 209.7 396.229 209.7C397.569 209.7 398.469 210.66 398.469 212.06V217.5H399.969V212.06C399.969 209.86 398.629 208.36 396.589 208.36C395.549 208.36 394.649 208.68 393.949 209.26V208.5H392.449ZM410.588 208.5H408.928L405.968 215.64L403.028 208.5H401.348L405.268 217.5H406.668L410.588 208.5ZM412.351 217.5H413.851V208.5H412.351V217.5ZM412.111 205.8C412.111 206.36 412.551 206.8 413.111 206.8C413.671 206.8 414.111 206.36 414.111 205.8C414.111 205.24 413.671 204.8 413.111 204.8C412.551 204.8 412.111 205.24 412.111 205.8ZM420.686 208.38C419.766 208.38 418.906 208.84 418.246 209.6V208.5H416.746V217.5H418.246V210.92C418.786 210.16 419.646 209.68 420.606 209.68C420.846 209.68 421.086 209.7 421.306 209.74V208.42C421.106 208.4 420.906 208.38 420.686 208.38ZM422.494 213C422.494 215.78 424.354 217.66 427.094 217.66C429.834 217.66 431.714 215.78 431.714 213C431.714 210.24 429.834 208.36 427.094 208.36C424.354 208.36 422.494 210.24 422.494 213ZM424.034 213C424.034 211.04 425.274 209.7 427.094 209.7C428.894 209.7 430.154 211.04 430.154 213C430.154 214.96 428.894 216.3 427.094 216.3C425.274 216.3 424.034 214.96 424.034 213ZM434.031 208.5V217.5H435.531V210.6C436.071 210.04 436.871 209.7 437.811 209.7C439.151 209.7 440.051 210.66 440.051 212.06V217.5H441.551V212.06C441.551 209.86 440.211 208.36 438.171 208.36C437.131 208.36 436.231 208.68 435.531 209.26V208.5H434.031ZM455.241 217.5H456.741V211.46C456.741 209.62 455.661 208.36 453.961 208.36C452.701 208.36 451.621 208.8 450.861 209.6C450.381 208.82 449.581 208.36 448.561 208.36C447.521 208.36 446.621 208.68 445.921 209.26V208.5H444.421V217.5H445.921V210.6C446.461 210.04 447.261 209.7 448.201 209.7C449.181 209.7 449.841 210.42 449.841 211.46V217.5H451.341V211.46C451.341 211.16 451.301 210.86 451.241 210.58C451.821 210.02 452.661 209.7 453.621 209.7C454.581 209.7 455.241 210.42 455.241 211.46V217.5ZM467.496 213.42C467.496 210.32 466.116 208.36 463.436 208.36C460.796 208.36 459.096 210.24 459.096 212.96C459.096 215.8 460.976 217.66 463.736 217.66C465.156 217.66 466.296 217.16 467.116 216.32L466.216 215.38C465.656 215.96 464.836 216.3 463.836 216.3C461.996 216.3 460.816 215.16 460.676 213.42H467.496ZM463.436 209.68C464.916 209.68 465.816 210.7 465.996 212.32H460.676C460.856 210.7 461.936 209.68 463.436 209.68ZM469.792 208.5V217.5H471.292V210.6C471.832 210.04 472.632 209.7 473.572 209.7C474.912 209.7 475.812 210.66 475.812 212.06V217.5H477.312V212.06C477.312 209.86 475.972 208.36 473.932 208.36C472.892 208.36 471.992 208.68 471.292 209.26V208.5H469.792ZM479.185 209.7H480.345V214.7C480.345 216.48 481.465 217.66 483.225 217.66C483.585 217.66 483.965 217.6 484.285 217.46V216.16C484.065 216.3 483.765 216.36 483.485 216.36C482.525 216.36 481.885 215.68 481.885 214.7V209.7H484.285V208.5H481.885V206.5H480.345V208.5H479.185V209.7Z" fill="black"/>
</svg>
